<?xml version="1.0" encoding="UTF-8" standalone="no"?>
<!DOCTYPE svg PUBLIC "-//W3C//DTD SVG 1.1//EN"
 "http://www.w3.org/Graphics/SVG/1.1/DTD/svg11.dtd">
<!-- Generated by graphviz version 12.2.1 (20241206.2353)
 -->
<!-- Pages: 1 -->
<svg width="694pt" height="2756pt"
 viewBox="0.00 0.00 694.00 2755.50" xmlns="http://www.w3.org/2000/svg" xmlns:xlink="http://www.w3.org/1999/xlink">
<g id="graph0" class="graph" transform="scale(1 1) rotate(0) translate(4 2751.5)">
<polygon fill="white" stroke="none" points="-4,4 -4,-2751.5 690,-2751.5 690,4 -4,4"/>
<g id="clust1" class="cluster">
<title>cluster_s3</title>
<polygon fill="none" stroke="black" points="8,-8 8,-2739.5 528,-2739.5 528,-8 8,-8"/>
<text text-anchor="middle" x="268" y="-2722.2" font-family="Times,serif" font-size="14.00">main</text>
</g>
<g id="clust2" class="cluster">
<title>cluster_s1</title>
<polygon fill="none" stroke="black" points="536,-2663 536,-2739.5 678,-2739.5 678,-2663 536,-2663"/>
<text text-anchor="middle" x="607" y="-2722.2" font-family="Times,serif" font-size="14.00">pkg.main</text>
</g>
<!-- n4 -->
<g id="node1" class="node">
<title>n4</title>
<path fill="#ebfaff" stroke="black" d="M381.88,-2707C381.88,-2707 296.12,-2707 296.12,-2707 290.12,-2707 284.12,-2701 284.12,-2695 284.12,-2695 284.12,-2683 284.12,-2683 284.12,-2677 290.12,-2671 296.12,-2671 296.12,-2671 381.88,-2671 381.88,-2671 387.88,-2671 393.88,-2677 393.88,-2683 393.88,-2683 393.88,-2695 393.88,-2695 393.88,-2701 387.88,-2707 381.88,-2707"/>
<text text-anchor="middle" x="339" y="-2683.95" font-family="Times,serif" font-size="14.00">1: BasicLit(int,3)</text>
</g>
<!-- n5 -->
<g id="node12" class="node">
<title>n5</title>
<path fill="#ebfaff" stroke="black" d="M405.5,-2618.5C405.5,-2618.5 272.5,-2618.5 272.5,-2618.5 266.5,-2618.5 260.5,-2612.5 260.5,-2606.5 260.5,-2606.5 260.5,-2594.5 260.5,-2594.5 260.5,-2588.5 266.5,-2582.5 272.5,-2582.5 272.5,-2582.5 405.5,-2582.5 405.5,-2582.5 411.5,-2582.5 417.5,-2588.5 417.5,-2594.5 417.5,-2594.5 417.5,-2606.5 417.5,-2606.5 417.5,-2612.5 411.5,-2618.5 405.5,-2618.5"/>
<text text-anchor="middle" x="339" y="-2595.45" font-family="Times,serif" font-size="14.00">2: ChanType(3,Ident(int))</text>
</g>
<!-- n4&#45;&gt;n5 -->
<g id="edge1" class="edge">
<title>n4&#45;&gt;n5</title>
<path fill="none" stroke="black" d="M339,-2670.91C339,-2659.26 339,-2643.55 339,-2630.02"/>
<polygon fill="black" stroke="black" points="342.5,-2630.36 339,-2620.36 335.5,-2630.36 342.5,-2630.36"/>
<text text-anchor="middle" x="375.38" y="-2639.7" font-family="Times,serif" font-size="14.00">main.go:4:26</text>
</g>
<!-- n13 -->
<g id="node2" class="node">
<title>n13</title>
<path fill="#ebfaff" stroke="black" d="M385.25,-1910.5C385.25,-1910.5 292.75,-1910.5 292.75,-1910.5 286.75,-1910.5 280.75,-1904.5 280.75,-1898.5 280.75,-1898.5 280.75,-1886.5 280.75,-1886.5 280.75,-1880.5 286.75,-1874.5 292.75,-1874.5 292.75,-1874.5 385.25,-1874.5 385.25,-1874.5 391.25,-1874.5 397.25,-1880.5 397.25,-1886.5 397.25,-1886.5 397.25,-1898.5 397.25,-1898.5 397.25,-1904.5 391.25,-1910.5 385.25,-1910.5"/>
<text text-anchor="middle" x="339" y="-1887.45" font-family="Times,serif" font-size="14.00">10: BasicLit(int,2)</text>
</g>
<!-- n14 -->
<g id="node3" class="node">
<title>n14</title>
<path fill="#ebfaff" stroke="black" d="M451.25,-1822C451.25,-1822 226.75,-1822 226.75,-1822 220.75,-1822 214.75,-1816 214.75,-1810 214.75,-1810 214.75,-1798 214.75,-1798 214.75,-1792 220.75,-1786 226.75,-1786 226.75,-1786 451.25,-1786 451.25,-1786 457.25,-1786 463.25,-1792 463.25,-1798 463.25,-1798 463.25,-1810 463.25,-1810 463.25,-1816 457.25,-1822 451.25,-1822"/>
<text text-anchor="middle" x="339" y="-1798.95" font-family="Times,serif" font-size="14.00">11: SendStmt(Ident(ch) &lt;&#45; BasicLit(int,2))</text>
</g>
<!-- n13&#45;&gt;n14 -->
<g id="edge2" class="edge">
<title>n13&#45;&gt;n14</title>
<path fill="none" stroke="black" d="M339,-1874.41C339,-1862.76 339,-1847.05 339,-1833.52"/>
<polygon fill="black" stroke="black" points="342.5,-1833.86 339,-1823.86 335.5,-1833.86 342.5,-1833.86"/>
<text text-anchor="middle" x="375.38" y="-1843.2" font-family="Times,serif" font-size="14.00">main.go:6:11</text>
</g>
<!-- n15 -->
<g id="node4" class="node">
<title>n15</title>
<path fill="#ebfaff" stroke="black" d="M370.25,-1733.5C370.25,-1733.5 307.75,-1733.5 307.75,-1733.5 301.75,-1733.5 295.75,-1727.5 295.75,-1721.5 295.75,-1721.5 295.75,-1709.5 295.75,-1709.5 295.75,-1703.5 301.75,-1697.5 307.75,-1697.5 307.75,-1697.5 370.25,-1697.5 370.25,-1697.5 376.25,-1697.5 382.25,-1703.5 382.25,-1709.5 382.25,-1709.5 382.25,-1721.5 382.25,-1721.5 382.25,-1727.5 376.25,-1733.5 370.25,-1733.5"/>
<text text-anchor="middle" x="339" y="-1710.45" font-family="Times,serif" font-size="14.00">12: Ident(ch)</text>
</g>
<!-- n14&#45;&gt;n15 -->
<g id="edge3" class="edge">
<title>n14&#45;&gt;n15</title>
<path fill="none" stroke="black" d="M339,-1785.91C339,-1774.26 339,-1758.55 339,-1745.02"/>
<polygon fill="black" stroke="black" points="342.5,-1745.36 339,-1735.36 335.5,-1745.36 342.5,-1745.36"/>
<text text-anchor="middle" x="372" y="-1754.7" font-family="Times,serif" font-size="14.00">main.go:6:8</text>
</g>
<!-- n16 -->
<g id="node5" class="node">
<title>n16</title>
<path fill="#ebfaff" stroke="black" d="M385.25,-1645C385.25,-1645 292.75,-1645 292.75,-1645 286.75,-1645 280.75,-1639 280.75,-1633 280.75,-1633 280.75,-1621 280.75,-1621 280.75,-1615 286.75,-1609 292.75,-1609 292.75,-1609 385.25,-1609 385.25,-1609 391.25,-1609 397.25,-1615 397.25,-1621 397.25,-1621 397.25,-1633 397.25,-1633 397.25,-1639 391.25,-1645 385.25,-1645"/>
<text text-anchor="middle" x="339" y="-1621.95" font-family="Times,serif" font-size="14.00">13: BasicLit(int,3)</text>
</g>
<!-- n15&#45;&gt;n16 -->
<g id="edge4" class="edge">
<title>n15&#45;&gt;n16</title>
<path fill="none" stroke="black" d="M339,-1697.41C339,-1685.76 339,-1670.05 339,-1656.52"/>
<polygon fill="black" stroke="black" points="342.5,-1656.86 339,-1646.86 335.5,-1656.86 342.5,-1656.86"/>
<text text-anchor="middle" x="372" y="-1666.2" font-family="Times,serif" font-size="14.00">main.go:7:5</text>
</g>
<!-- n17 -->
<g id="node6" class="node">
<title>n17</title>
<path fill="#ebfaff" stroke="black" d="M451.25,-1556.5C451.25,-1556.5 226.75,-1556.5 226.75,-1556.5 220.75,-1556.5 214.75,-1550.5 214.75,-1544.5 214.75,-1544.5 214.75,-1532.5 214.75,-1532.5 214.75,-1526.5 220.75,-1520.5 226.75,-1520.5 226.75,-1520.5 451.25,-1520.5 451.25,-1520.5 457.25,-1520.5 463.25,-1526.5 463.25,-1532.5 463.25,-1532.5 463.25,-1544.5 463.25,-1544.5 463.25,-1550.5 457.25,-1556.5 451.25,-1556.5"/>
<text text-anchor="middle" x="339" y="-1533.45" font-family="Times,serif" font-size="14.00">14: SendStmt(Ident(ch) &lt;&#45; BasicLit(int,3))</text>
</g>
<!-- n16&#45;&gt;n17 -->
<g id="edge5" class="edge">
<title>n16&#45;&gt;n17</title>
<path fill="none" stroke="black" d="M339,-1608.91C339,-1597.26 339,-1581.55 339,-1568.02"/>
<polygon fill="black" stroke="black" points="342.5,-1568.36 339,-1558.36 335.5,-1568.36 342.5,-1568.36"/>
<text text-anchor="middle" x="375.38" y="-1577.7" font-family="Times,serif" font-size="14.00">main.go:7:11</text>
</g>
<!-- n18 -->
<g id="node7" class="node">
<title>n18</title>
<path fill="#ebfaff" stroke="black" d="M370.25,-1468C370.25,-1468 307.75,-1468 307.75,-1468 301.75,-1468 295.75,-1462 295.75,-1456 295.75,-1456 295.75,-1444 295.75,-1444 295.75,-1438 301.75,-1432 307.75,-1432 307.75,-1432 370.25,-1432 370.25,-1432 376.25,-1432 382.25,-1438 382.25,-1444 382.25,-1444 382.25,-1456 382.25,-1456 382.25,-1462 376.25,-1468 370.25,-1468"/>
<text text-anchor="middle" x="339" y="-1444.95" font-family="Times,serif" font-size="14.00">15: Ident(ch)</text>
</g>
<!-- n17&#45;&gt;n18 -->
<g id="edge6" class="edge">
<title>n17&#45;&gt;n18</title>
<path fill="none" stroke="black" d="M339,-1520.41C339,-1508.76 339,-1493.05 339,-1479.52"/>
<polygon fill="black" stroke="black" points="342.5,-1479.86 339,-1469.86 335.5,-1479.86 342.5,-1479.86"/>
<text text-anchor="middle" x="372" y="-1489.2" font-family="Times,serif" font-size="14.00">main.go:7:8</text>
</g>
<!-- n19 -->
<g id="node8" class="node">
<title>n19</title>
<path fill="#ebfaff" stroke="black" d="M377.75,-1379.5C377.75,-1379.5 300.25,-1379.5 300.25,-1379.5 294.25,-1379.5 288.25,-1373.5 288.25,-1367.5 288.25,-1367.5 288.25,-1355.5 288.25,-1355.5 288.25,-1349.5 294.25,-1343.5 300.25,-1343.5 300.25,-1343.5 377.75,-1343.5 377.75,-1343.5 383.75,-1343.5 389.75,-1349.5 389.75,-1355.5 389.75,-1355.5 389.75,-1367.5 389.75,-1367.5 389.75,-1373.5 383.75,-1379.5 377.75,-1379.5"/>
<text text-anchor="middle" x="339" y="-1356.45" font-family="Times,serif" font-size="14.00">16: Ident(close)</text>
</g>
<!-- n18&#45;&gt;n19 -->
<g id="edge7" class="edge">
<title>n18&#45;&gt;n19</title>
<path fill="none" stroke="black" d="M339,-1431.91C339,-1420.26 339,-1404.55 339,-1391.02"/>
<polygon fill="black" stroke="black" points="342.5,-1391.36 339,-1381.36 335.5,-1391.36 342.5,-1391.36"/>
<text text-anchor="middle" x="375.38" y="-1400.7" font-family="Times,serif" font-size="14.00">main.go:8:11</text>
</g>
<!-- n20 -->
<g id="node9" class="node">
<title>n20</title>
<path fill="#ebfaff" stroke="black" d="M429.12,-1291C429.12,-1291 248.88,-1291 248.88,-1291 242.88,-1291 236.88,-1285 236.88,-1279 236.88,-1279 236.88,-1267 236.88,-1267 236.88,-1261 242.88,-1255 248.88,-1255 248.88,-1255 429.12,-1255 429.12,-1255 435.12,-1255 441.12,-1261 441.12,-1267 441.12,-1267 441.12,-1279 441.12,-1279 441.12,-1285 435.12,-1291 429.12,-1291"/>
<text text-anchor="middle" x="339" y="-1267.95" font-family="Times,serif" font-size="14.00">17: CallExpr(Ident(close), args=1)</text>
</g>
<!-- n19&#45;&gt;n20 -->
<g id="edge8" class="edge">
<title>n19&#45;&gt;n20</title>
<path fill="none" stroke="black" d="M339,-1343.41C339,-1331.76 339,-1316.05 339,-1302.52"/>
<polygon fill="black" stroke="black" points="342.5,-1302.86 339,-1292.86 335.5,-1302.86 342.5,-1302.86"/>
<text text-anchor="middle" x="372" y="-1312.2" font-family="Times,serif" font-size="14.00">main.go:8:5</text>
</g>
<!-- n21 -->
<g id="node10" class="node">
<title>n21</title>
<path fill="#ebfaff" stroke="black" d="M370.25,-1202.5C370.25,-1202.5 307.75,-1202.5 307.75,-1202.5 301.75,-1202.5 295.75,-1196.5 295.75,-1190.5 295.75,-1190.5 295.75,-1178.5 295.75,-1178.5 295.75,-1172.5 301.75,-1166.5 307.75,-1166.5 307.75,-1166.5 370.25,-1166.5 370.25,-1166.5 376.25,-1166.5 382.25,-1172.5 382.25,-1178.5 382.25,-1178.5 382.25,-1190.5 382.25,-1190.5 382.25,-1196.5 376.25,-1202.5 370.25,-1202.5"/>
<text text-anchor="middle" x="339" y="-1179.45" font-family="Times,serif" font-size="14.00">18: Ident(ch)</text>
</g>
<!-- n20&#45;&gt;n21 -->
<g id="edge9" class="edge">
<title>n20&#45;&gt;n21</title>
<path fill="none" stroke="black" d="M339,-1254.91C339,-1243.26 339,-1227.55 339,-1214.02"/>
<polygon fill="black" stroke="black" points="342.5,-1214.36 339,-1204.36 335.5,-1214.36 342.5,-1214.36"/>
<text text-anchor="middle" x="375.38" y="-1223.7" font-family="Times,serif" font-size="14.00">main.go:8:10</text>
</g>
<!-- n22 -->
<g id="node11" class="node">
<title>n22</title>
<path fill="#ebfaff" stroke="black" d="M405.88,-1114C405.88,-1114 272.12,-1114 272.12,-1114 266.12,-1114 260.12,-1108 260.12,-1102 260.12,-1102 260.12,-1090 260.12,-1090 260.12,-1084 266.12,-1078 272.12,-1078 272.12,-1078 405.88,-1078 405.88,-1078 411.88,-1078 417.88,-1084 417.88,-1090 417.88,-1090 417.88,-1102 417.88,-1102 417.88,-1108 411.88,-1114 405.88,-1114"/>
<text text-anchor="middle" x="339" y="-1090.95" font-family="Times,serif" font-size="14.00">19: ~range&#45;iterator&#45;switch</text>
</g>
<!-- n21&#45;&gt;n22 -->
<g id="edge10" class="edge">
<title>n21&#45;&gt;n22</title>
<path fill="none" stroke="black" d="M339,-1166.41C339,-1154.76 339,-1139.05 339,-1125.52"/>
<polygon fill="black" stroke="black" points="342.5,-1125.86 339,-1115.86 335.5,-1125.86 342.5,-1125.86"/>
<text text-anchor="middle" x="375.38" y="-1135.2" font-family="Times,serif" font-size="14.00">main.go:9:20</text>
</g>
<!-- n23 -->
<g id="node13" class="node">
<title>n23</title>
<path fill="#ebfaff" stroke="black" d="M373.62,-1025.5C373.62,-1025.5 304.38,-1025.5 304.38,-1025.5 298.38,-1025.5 292.38,-1019.5 292.38,-1013.5 292.38,-1013.5 292.38,-1001.5 292.38,-1001.5 292.38,-995.5 298.38,-989.5 304.38,-989.5 304.38,-989.5 373.62,-989.5 373.62,-989.5 379.62,-989.5 385.62,-995.5 385.62,-1001.5 385.62,-1001.5 385.62,-1013.5 385.62,-1013.5 385.62,-1019.5 379.62,-1025.5 373.62,-1025.5"/>
<text text-anchor="middle" x="339" y="-1002.45" font-family="Times,serif" font-size="14.00">20: ~push env</text>
</g>
<!-- n22&#45;&gt;n23 -->
<g id="edge11" class="edge">
<title>n22&#45;&gt;n23</title>
<path fill="none" stroke="black" d="M339,-1077.91C339,-1066.26 339,-1050.55 339,-1037.02"/>
<polygon fill="black" stroke="black" points="342.5,-1037.36 339,-1027.36 335.5,-1037.36 342.5,-1037.36"/>
<text text-anchor="middle" x="351.75" y="-1046.7" font-family="Times,serif" font-size="14.00">chan</text>
</g>
<!-- n6 -->
<g id="node23" class="node">
<title>n6</title>
<path fill="#ebfaff" stroke="black" d="M375.5,-2530C375.5,-2530 302.5,-2530 302.5,-2530 296.5,-2530 290.5,-2524 290.5,-2518 290.5,-2518 290.5,-2506 290.5,-2506 290.5,-2500 296.5,-2494 302.5,-2494 302.5,-2494 375.5,-2494 375.5,-2494 381.5,-2494 387.5,-2500 387.5,-2506 387.5,-2506 387.5,-2518 387.5,-2518 387.5,-2524 381.5,-2530 375.5,-2530"/>
<text text-anchor="middle" x="339" y="-2506.95" font-family="Times,serif" font-size="14.00">3: Ident(make)</text>
</g>
<!-- n5&#45;&gt;n6 -->
<g id="edge12" class="edge">
<title>n5&#45;&gt;n6</title>
<path fill="none" stroke="black" d="M339,-2582.41C339,-2570.76 339,-2555.05 339,-2541.52"/>
<polygon fill="black" stroke="black" points="342.5,-2541.86 339,-2531.86 335.5,-2541.86 342.5,-2541.86"/>
<text text-anchor="middle" x="375.38" y="-2551.2" font-family="Times,serif" font-size="14.00">main.go:4:16</text>
</g>
<!-- n24 -->
<g id="node14" class="node">
<title>n24</title>
<path fill="#ebfaff" stroke="black" d="M370.25,-937C370.25,-937 307.75,-937 307.75,-937 301.75,-937 295.75,-931 295.75,-925 295.75,-925 295.75,-913 295.75,-913 295.75,-907 301.75,-901 307.75,-901 307.75,-901 370.25,-901 370.25,-901 376.25,-901 382.25,-907 382.25,-913 382.25,-913 382.25,-925 382.25,-925 382.25,-931 376.25,-937 370.25,-937"/>
<text text-anchor="middle" x="339" y="-913.95" font-family="Times,serif" font-size="14.00">21: Ident(ch)</text>
</g>
<!-- n23&#45;&gt;n24 -->
<g id="edge13" class="edge">
<title>n23&#45;&gt;n24</title>
<path fill="none" stroke="black" d="M339,-989.41C339,-977.76 339,-962.05 339,-948.52"/>
<polygon fill="black" stroke="black" points="342.5,-948.86 339,-938.86 335.5,-948.86 342.5,-948.86"/>
<text text-anchor="middle" x="372" y="-958.2" font-family="Times,serif" font-size="14.00">main.go:9:5</text>
</g>
<!-- n25 -->
<g id="node15" class="node">
<title>n25</title>
<path fill="#ebfaff" stroke="black" d="M368.62,-848.5C368.62,-848.5 215.38,-848.5 215.38,-848.5 209.38,-848.5 203.38,-842.5 203.38,-836.5 203.38,-836.5 203.38,-824.5 203.38,-824.5 203.38,-818.5 209.38,-812.5 215.38,-812.5 215.38,-812.5 368.62,-812.5 368.62,-812.5 374.62,-812.5 380.62,-818.5 380.62,-824.5 380.62,-824.5 380.62,-836.5 380.62,-836.5 380.62,-842.5 374.62,-848.5 368.62,-848.5"/>
<text text-anchor="middle" x="292" y="-825.45" font-family="Times,serif" font-size="14.00">22: reflectLenExpr(Ident(ch))</text>
</g>
<!-- n24&#45;&gt;n25 -->
<g id="edge14" class="edge">
<title>n24&#45;&gt;n25</title>
<path fill="none" stroke="black" d="M329.71,-900.91C323.19,-888.9 314.33,-872.59 306.83,-858.8"/>
<polygon fill="black" stroke="black" points="310,-857.3 302.15,-850.18 303.85,-860.64 310,-857.3"/>
<text text-anchor="middle" x="356.08" y="-869.7" font-family="Times,serif" font-size="14.00">main.go:9:20</text>
</g>
<!-- n26 -->
<g id="node16" class="node">
<title>n26</title>
<path fill="#ebfaff" stroke="black" d="M312.25,-760C312.25,-760 219.75,-760 219.75,-760 213.75,-760 207.75,-754 207.75,-748 207.75,-748 207.75,-736 207.75,-736 207.75,-730 213.75,-724 219.75,-724 219.75,-724 312.25,-724 312.25,-724 318.25,-724 324.25,-730 324.25,-736 324.25,-736 324.25,-748 324.25,-748 324.25,-754 318.25,-760 312.25,-760"/>
<text text-anchor="middle" x="266" y="-736.95" font-family="Times,serif" font-size="14.00">23: BasicLit(int,0)</text>
</g>
<!-- n25&#45;&gt;n26 -->
<g id="edge15" class="edge">
<title>n25&#45;&gt;n26</title>
<path fill="none" stroke="black" d="M286.86,-812.41C283.33,-800.64 278.54,-784.73 274.45,-771.11"/>
<polygon fill="black" stroke="black" points="277.88,-770.37 271.65,-761.8 271.18,-772.38 277.88,-770.37"/>
<text text-anchor="middle" x="317.7" y="-781.2" font-family="Times,serif" font-size="14.00">main.go:9:20</text>
</g>
<!-- n27 -->
<g id="node17" class="node">
<title>n27</title>
<path fill="#ebfaff" stroke="black" d="M409.25,-671.5C409.25,-671.5 88.75,-671.5 88.75,-671.5 82.75,-671.5 76.75,-665.5 76.75,-659.5 76.75,-659.5 76.75,-647.5 76.75,-647.5 76.75,-641.5 82.75,-635.5 88.75,-635.5 88.75,-635.5 409.25,-635.5 409.25,-635.5 415.25,-635.5 421.25,-641.5 421.25,-647.5 421.25,-647.5 421.25,-659.5 421.25,-659.5 421.25,-665.5 415.25,-671.5 409.25,-671.5"/>
<text text-anchor="middle" x="249" y="-648.45" font-family="Times,serif" font-size="14.00">24: BinaryExpr(reflectLenExpr(Ident(ch)) &gt; BasicLit(int,0))</text>
</g>
<!-- n26&#45;&gt;n27 -->
<g id="edge16" class="edge">
<title>n26&#45;&gt;n27</title>
<path fill="none" stroke="black" d="M262.64,-723.91C260.35,-712.26 257.26,-696.55 254.6,-683.02"/>
<polygon fill="black" stroke="black" points="258.06,-682.47 252.7,-673.34 251.2,-683.82 258.06,-682.47"/>
<text text-anchor="middle" x="292.02" y="-692.7" font-family="Times,serif" font-size="14.00">main.go:9:5</text>
</g>
<!-- n28 -->
<g id="node18" class="node">
<title>n28</title>
<path fill="#ebfaff" stroke="black" d="M296.75,-583C296.75,-583 201.25,-583 201.25,-583 195.25,-583 189.25,-577 189.25,-571 189.25,-571 189.25,-559 189.25,-559 189.25,-553 195.25,-547 201.25,-547 201.25,-547 296.75,-547 296.75,-547 302.75,-547 308.75,-553 308.75,-559 308.75,-559 308.75,-571 308.75,-571 308.75,-577 302.75,-583 296.75,-583"/>
<text text-anchor="middle" x="249" y="-559.95" font-family="Times,serif" font-size="14.00">25: ~if: 26 else: 32</text>
</g>
<!-- n27&#45;&gt;n28 -->
<g id="edge17" class="edge">
<title>n27&#45;&gt;n28</title>
<path fill="none" stroke="black" d="M249,-635.41C249,-623.76 249,-608.05 249,-594.52"/>
<polygon fill="black" stroke="black" points="252.5,-594.86 249,-584.86 245.5,-594.86 252.5,-594.86"/>
<text text-anchor="middle" x="282" y="-604.2" font-family="Times,serif" font-size="14.00">main.go:9:5</text>
</g>
<!-- n29 -->
<g id="node19" class="node">
<title>n29</title>
<path fill="#ebfaff" stroke="black" d="M243.25,-494.5C243.25,-494.5 180.75,-494.5 180.75,-494.5 174.75,-494.5 168.75,-488.5 168.75,-482.5 168.75,-482.5 168.75,-470.5 168.75,-470.5 168.75,-464.5 174.75,-458.5 180.75,-458.5 180.75,-458.5 243.25,-458.5 243.25,-458.5 249.25,-458.5 255.25,-464.5 255.25,-470.5 255.25,-470.5 255.25,-482.5 255.25,-482.5 255.25,-488.5 249.25,-494.5 243.25,-494.5"/>
<text text-anchor="middle" x="212" y="-471.45" font-family="Times,serif" font-size="14.00">26: Ident(ch)</text>
</g>
<!-- n28&#45;&gt;n29 -->
<g id="edge18" class="edge">
<title>n28&#45;&gt;n29</title>
<path fill="none" stroke="black" d="M241.69,-546.91C236.6,-535.02 229.71,-518.91 223.85,-505.2"/>
<polygon fill="black" stroke="black" points="227.17,-504.06 220.02,-496.24 220.73,-506.81 227.17,-504.06"/>
<text text-anchor="middle" x="244.31" y="-515.7" font-family="Times,serif" font-size="14.00">true</text>
</g>
<!-- n35 -->
<g id="node26" class="node">
<title>n35</title>
<path fill="#ebfaff" stroke="black" d="M372,-494.5C372,-494.5 308,-494.5 308,-494.5 302,-494.5 296,-488.5 296,-482.5 296,-482.5 296,-470.5 296,-470.5 296,-464.5 302,-458.5 308,-458.5 308,-458.5 372,-458.5 372,-458.5 378,-458.5 384,-464.5 384,-470.5 384,-470.5 384,-482.5 384,-482.5 384,-488.5 378,-494.5 372,-494.5"/>
<text text-anchor="middle" x="340" y="-471.45" font-family="Times,serif" font-size="14.00">32: ~pop env</text>
</g>
<!-- n28&#45;&gt;n35 -->
<g id="edge19" class="edge">
<title>n28&#45;&gt;n35</title>
<path fill="none" stroke="black" d="M266.98,-546.91C280.35,-534.2 298.81,-516.66 313.82,-502.39"/>
<polygon fill="black" stroke="black" points="315.81,-505.32 320.65,-495.89 310.99,-500.25 315.81,-505.32"/>
<text text-anchor="middle" x="315.4" y="-515.7" font-family="Times,serif" font-size="14.00">false</text>
</g>
<!-- n30 -->
<g id="node20" class="node">
<title>n30</title>
<path fill="#ebfaff" stroke="black" d="M279,-406C279,-406 131,-406 131,-406 125,-406 119,-400 119,-394 119,-394 119,-382 119,-382 119,-376 125,-370 131,-370 131,-370 279,-370 279,-370 285,-370 291,-376 291,-382 291,-382 291,-394 291,-394 291,-400 285,-406 279,-406"/>
<text text-anchor="middle" x="205" y="-382.95" font-family="Times,serif" font-size="14.00">27: UnaryExpr(&lt;&#45; Ident(ch))</text>
</g>
<!-- n29&#45;&gt;n30 -->
<g id="edge20" class="edge">
<title>n29&#45;&gt;n30</title>
<path fill="none" stroke="black" d="M210.62,-458.41C209.67,-446.76 208.4,-431.05 207.31,-417.52"/>
<polygon fill="black" stroke="black" points="210.82,-417.54 206.53,-407.86 203.84,-418.11 210.82,-417.54"/>
<text text-anchor="middle" x="245.5" y="-427.2" font-family="Times,serif" font-size="14.00">main.go:9:20</text>
</g>
<!-- n31 -->
<g id="node21" class="node">
<title>n31</title>
<path fill="#ebfaff" stroke="black" d="M329.5,-317.5C329.5,-317.5 28.5,-317.5 28.5,-317.5 22.5,-317.5 16.5,-311.5 16.5,-305.5 16.5,-305.5 16.5,-293.5 16.5,-293.5 16.5,-287.5 22.5,-281.5 28.5,-281.5 28.5,-281.5 329.5,-281.5 329.5,-281.5 335.5,-281.5 341.5,-287.5 341.5,-293.5 341.5,-293.5 341.5,-305.5 341.5,-305.5 341.5,-311.5 335.5,-317.5 329.5,-317.5"/>
<text text-anchor="middle" x="179" y="-294.45" font-family="Times,serif" font-size="14.00">28: AssignStmt([Ident(v)] := [UnaryExpr(&lt;&#45; Ident(ch))])</text>
</g>
<!-- n30&#45;&gt;n31 -->
<g id="edge21" class="edge">
<title>n30&#45;&gt;n31</title>
<path fill="none" stroke="black" d="M199.86,-369.91C196.33,-358.14 191.54,-342.23 187.45,-328.61"/>
<polygon fill="black" stroke="black" points="190.88,-327.87 184.65,-319.3 184.18,-329.88 190.88,-327.87"/>
<text text-anchor="middle" x="227.33" y="-338.7" font-family="Times,serif" font-size="14.00">main.go:9:5</text>
</g>
<!-- n32 -->
<g id="node22" class="node">
<title>n32</title>
<path fill="#ebfaff" stroke="black" d="M296.25,-229C296.25,-229 239.75,-229 239.75,-229 233.75,-229 227.75,-223 227.75,-217 227.75,-217 227.75,-205 227.75,-205 227.75,-199 233.75,-193 239.75,-193 239.75,-193 296.25,-193 296.25,-193 302.25,-193 308.25,-199 308.25,-205 308.25,-205 308.25,-217 308.25,-217 308.25,-223 302.25,-229 296.25,-229"/>
<text text-anchor="middle" x="268" y="-205.95" font-family="Times,serif" font-size="14.00">29: Ident(v)</text>
</g>
<!-- n31&#45;&gt;n32 -->
<g id="edge22" class="edge">
<title>n31&#45;&gt;n32</title>
<path fill="none" stroke="black" d="M196.58,-281.41C209.54,-268.82 227.38,-251.48 241.98,-237.29"/>
<polygon fill="black" stroke="black" points="244.33,-239.88 249.06,-230.41 239.45,-234.86 244.33,-239.88"/>
<text text-anchor="middle" x="264.47" y="-250.2" font-family="Times,serif" font-size="14.00">main.go:9:5</text>
</g>
<!-- n33 -->
<g id="node24" class="node">
<title>n33</title>
<path fill="#ebfaff" stroke="black" d="M324.62,-140.5C324.62,-140.5 249.38,-140.5 249.38,-140.5 243.38,-140.5 237.38,-134.5 237.38,-128.5 237.38,-128.5 237.38,-116.5 237.38,-116.5 237.38,-110.5 243.38,-104.5 249.38,-104.5 249.38,-104.5 324.62,-104.5 324.62,-104.5 330.62,-104.5 336.62,-110.5 336.62,-116.5 336.62,-116.5 336.62,-128.5 336.62,-128.5 336.62,-134.5 330.62,-140.5 324.62,-140.5"/>
<text text-anchor="middle" x="287" y="-117.45" font-family="Times,serif" font-size="14.00">30: Ident(print)</text>
</g>
<!-- n32&#45;&gt;n33 -->
<g id="edge23" class="edge">
<title>n32&#45;&gt;n33</title>
<path fill="none" stroke="black" d="M271.75,-192.91C274.31,-181.26 277.76,-165.55 280.74,-152.02"/>
<polygon fill="black" stroke="black" points="284.14,-152.85 282.86,-142.33 277.3,-151.34 284.14,-152.85"/>
<text text-anchor="middle" x="318.95" y="-161.7" font-family="Times,serif" font-size="14.00">main.go:10:15</text>
</g>
<!-- n7 -->
<g id="node30" class="node">
<title>n7</title>
<path fill="#ebfaff" stroke="black" d="M426.88,-2441.5C426.88,-2441.5 251.12,-2441.5 251.12,-2441.5 245.12,-2441.5 239.12,-2435.5 239.12,-2429.5 239.12,-2429.5 239.12,-2417.5 239.12,-2417.5 239.12,-2411.5 245.12,-2405.5 251.12,-2405.5 251.12,-2405.5 426.88,-2405.5 426.88,-2405.5 432.88,-2405.5 438.88,-2411.5 438.88,-2417.5 438.88,-2417.5 438.88,-2429.5 438.88,-2429.5 438.88,-2435.5 432.88,-2441.5 426.88,-2441.5"/>
<text text-anchor="middle" x="339" y="-2418.45" font-family="Times,serif" font-size="14.00">4: CallExpr(Ident(make), args=2)</text>
</g>
<!-- n6&#45;&gt;n7 -->
<g id="edge24" class="edge">
<title>n6&#45;&gt;n7</title>
<path fill="none" stroke="black" d="M339,-2493.91C339,-2482.26 339,-2466.55 339,-2453.02"/>
<polygon fill="black" stroke="black" points="342.5,-2453.36 339,-2443.36 335.5,-2453.36 342.5,-2453.36"/>
<text text-anchor="middle" x="375.38" y="-2462.7" font-family="Times,serif" font-size="14.00">main.go:4:11</text>
</g>
<!-- n34 -->
<g id="node25" class="node">
<title>n34</title>
<path fill="#ebfaff" stroke="black" d="M433,-52C433,-52 255,-52 255,-52 249,-52 243,-46 243,-40 243,-40 243,-28 243,-28 243,-22 249,-16 255,-16 255,-16 433,-16 433,-16 439,-16 445,-22 445,-28 445,-28 445,-40 445,-40 445,-46 439,-52 433,-52"/>
<text text-anchor="middle" x="344" y="-28.95" font-family="Times,serif" font-size="14.00">31: CallExpr(Ident(print), args=1)</text>
</g>
<!-- n33&#45;&gt;n34 -->
<g id="edge25" class="edge">
<title>n33&#45;&gt;n34</title>
<path fill="none" stroke="black" d="M298.26,-104.41C306.25,-92.29 317.13,-75.77 326.28,-61.89"/>
<polygon fill="black" stroke="black" points="329.15,-63.89 331.73,-53.61 323.31,-60.04 329.15,-63.89"/>
<text text-anchor="middle" x="356.98" y="-73.2" font-family="Times,serif" font-size="14.00">main.go:10:9</text>
</g>
<!-- n34&#45;&gt;n24 -->
<g id="edge26" class="edge">
<title>n34&#45;&gt;n24</title>
<path fill="none" stroke="black" d="M445.29,-49.5C483.99,-61.3 519,-82.7 519,-121.5 519,-256.25 519,-256.25 519,-256.25 519,-378.51 440,-397.49 440,-519.75 440,-831.5 440,-831.5 440,-831.5 440,-859.81 416.83,-880.84 392.69,-895.07"/>
<polygon fill="black" stroke="black" points="391.11,-891.95 384.04,-899.84 394.49,-898.08 391.11,-891.95"/>
<text text-anchor="middle" x="487.39" y="-471.45" font-family="Times,serif" font-size="14.00">main.go:10:14</text>
</g>
<!-- n36 -->
<g id="node27" class="node">
<title>n36</title>
<path fill="#ebfaff" stroke="black" d="M433.62,-406C433.62,-406 352.38,-406 352.38,-406 346.38,-406 340.38,-400 340.38,-394 340.38,-394 340.38,-382 340.38,-382 340.38,-376 346.38,-370 352.38,-370 352.38,-370 433.62,-370 433.62,-370 439.62,-370 445.62,-376 445.62,-382 445.62,-382 445.62,-394 445.62,-394 445.62,-400 439.62,-406 433.62,-406"/>
<text text-anchor="middle" x="393" y="-382.95" font-family="Times,serif" font-size="14.00">33: ~range&#45;done</text>
</g>
<!-- n35&#45;&gt;n36 -->
<g id="edge27" class="edge">
<title>n35&#45;&gt;n36</title>
<path fill="none" stroke="black" d="M350.47,-458.41C357.9,-446.29 368.02,-429.77 376.52,-415.89"/>
<polygon fill="black" stroke="black" points="379.34,-418 381.58,-407.64 373.37,-414.34 379.34,-418"/>
<text text-anchor="middle" x="407.62" y="-427.2" font-family="Times,serif" font-size="14.00">main.go:9:23</text>
</g>
<!-- n37 -->
<g id="node28" class="node">
<title>n37</title>
<path fill="#ebfaff" stroke="black" d="M488.25,-317.5C488.25,-317.5 371.75,-317.5 371.75,-317.5 365.75,-317.5 359.75,-311.5 359.75,-305.5 359.75,-305.5 359.75,-293.5 359.75,-293.5 359.75,-287.5 365.75,-281.5 371.75,-281.5 371.75,-281.5 488.25,-281.5 488.25,-281.5 494.25,-281.5 500.25,-287.5 500.25,-293.5 500.25,-293.5 500.25,-305.5 500.25,-305.5 500.25,-311.5 494.25,-317.5 488.25,-317.5"/>
<text text-anchor="middle" x="430" y="-294.45" font-family="Times,serif" font-size="14.00">34: ReturnStmt(len=0)</text>
</g>
<!-- n36&#45;&gt;n37 -->
<g id="edge28" class="edge">
<title>n36&#45;&gt;n37</title>
<path fill="none" stroke="black" d="M400.31,-369.91C405.4,-358.02 412.29,-341.91 418.15,-328.2"/>
<polygon fill="black" stroke="black" points="421.27,-329.81 421.98,-319.24 414.83,-327.06 421.27,-329.81"/>
<text text-anchor="middle" x="447.81" y="-338.7" font-family="Times,serif" font-size="14.00">main.go:9:5</text>
</g>
<!-- n38 -->
<g id="node29" class="node">
<title>n38</title>
<path fill="#ebfaff" stroke="black" d="M488.12,-229C488.12,-229 367.88,-229 367.88,-229 361.88,-229 355.88,-223 355.88,-217 355.88,-217 355.88,-205 355.88,-205 355.88,-199 361.88,-193 367.88,-193 367.88,-193 488.12,-193 488.12,-193 494.12,-193 500.12,-199 500.12,-205 500.12,-205 500.12,-217 500.12,-217 500.12,-223 494.12,-229 488.12,-229"/>
<text text-anchor="middle" x="428" y="-205.95" font-family="Times,serif" font-size="14.00">35: ~exec defer+results</text>
</g>
<!-- n37&#45;&gt;n38 -->
<g id="edge29" class="edge">
<title>n37&#45;&gt;n38</title>
<path fill="none" stroke="black" d="M429.6,-281.41C429.34,-269.76 428.97,-254.05 428.66,-240.52"/>
<polygon fill="black" stroke="black" points="432.17,-240.78 428.44,-230.86 425.17,-240.94 432.17,-240.78"/>
<text text-anchor="middle" x="465.55" y="-250.2" font-family="Times,serif" font-size="14.00">main.go:3:13</text>
</g>
<!-- n8 -->
<g id="node31" class="node">
<title>n8</title>
<path fill="#ebfaff" stroke="black" d="M506.38,-2353C506.38,-2353 171.62,-2353 171.62,-2353 165.62,-2353 159.62,-2347 159.62,-2341 159.62,-2341 159.62,-2329 159.62,-2329 159.62,-2323 165.62,-2317 171.62,-2317 171.62,-2317 506.38,-2317 506.38,-2317 512.38,-2317 518.38,-2323 518.38,-2329 518.38,-2329 518.38,-2341 518.38,-2341 518.38,-2347 512.38,-2353 506.38,-2353"/>
<text text-anchor="middle" x="339" y="-2329.95" font-family="Times,serif" font-size="14.00">5: AssignStmt([Ident(ch)] := [CallExpr(Ident(make), args=2)])</text>
</g>
<!-- n7&#45;&gt;n8 -->
<g id="edge30" class="edge">
<title>n7&#45;&gt;n8</title>
<path fill="none" stroke="black" d="M339,-2405.41C339,-2393.76 339,-2378.05 339,-2364.52"/>
<polygon fill="black" stroke="black" points="342.5,-2364.86 339,-2354.86 335.5,-2364.86 342.5,-2364.86"/>
<text text-anchor="middle" x="375.38" y="-2374.2" font-family="Times,serif" font-size="14.00">main.go:4:15</text>
</g>
<!-- n9 -->
<g id="node32" class="node">
<title>n9</title>
<path fill="#ebfaff" stroke="black" d="M366.88,-2264.5C366.88,-2264.5 311.12,-2264.5 311.12,-2264.5 305.12,-2264.5 299.12,-2258.5 299.12,-2252.5 299.12,-2252.5 299.12,-2240.5 299.12,-2240.5 299.12,-2234.5 305.12,-2228.5 311.12,-2228.5 311.12,-2228.5 366.88,-2228.5 366.88,-2228.5 372.88,-2228.5 378.88,-2234.5 378.88,-2240.5 378.88,-2240.5 378.88,-2252.5 378.88,-2252.5 378.88,-2258.5 372.88,-2264.5 366.88,-2264.5"/>
<text text-anchor="middle" x="339" y="-2241.45" font-family="Times,serif" font-size="14.00">6: Ident(ch)</text>
</g>
<!-- n8&#45;&gt;n9 -->
<g id="edge31" class="edge">
<title>n8&#45;&gt;n9</title>
<path fill="none" stroke="black" d="M339,-2316.91C339,-2305.26 339,-2289.55 339,-2276.02"/>
<polygon fill="black" stroke="black" points="342.5,-2276.36 339,-2266.36 335.5,-2276.36 342.5,-2276.36"/>
<text text-anchor="middle" x="372" y="-2285.7" font-family="Times,serif" font-size="14.00">main.go:4:8</text>
</g>
<!-- n10 -->
<g id="node33" class="node">
<title>n10</title>
<path fill="#ebfaff" stroke="black" d="M381.88,-2176C381.88,-2176 296.12,-2176 296.12,-2176 290.12,-2176 284.12,-2170 284.12,-2164 284.12,-2164 284.12,-2152 284.12,-2152 284.12,-2146 290.12,-2140 296.12,-2140 296.12,-2140 381.88,-2140 381.88,-2140 387.88,-2140 393.88,-2146 393.88,-2152 393.88,-2152 393.88,-2164 393.88,-2164 393.88,-2170 387.88,-2176 381.88,-2176"/>
<text text-anchor="middle" x="339" y="-2152.95" font-family="Times,serif" font-size="14.00">7: BasicLit(int,1)</text>
</g>
<!-- n9&#45;&gt;n10 -->
<g id="edge32" class="edge">
<title>n9&#45;&gt;n10</title>
<path fill="none" stroke="black" d="M339,-2228.41C339,-2216.76 339,-2201.05 339,-2187.52"/>
<polygon fill="black" stroke="black" points="342.5,-2187.86 339,-2177.86 335.5,-2187.86 342.5,-2187.86"/>
<text text-anchor="middle" x="372" y="-2197.2" font-family="Times,serif" font-size="14.00">main.go:5:5</text>
</g>
<!-- n11 -->
<g id="node34" class="node">
<title>n11</title>
<path fill="#ebfaff" stroke="black" d="M447.88,-2087.5C447.88,-2087.5 230.12,-2087.5 230.12,-2087.5 224.12,-2087.5 218.12,-2081.5 218.12,-2075.5 218.12,-2075.5 218.12,-2063.5 218.12,-2063.5 218.12,-2057.5 224.12,-2051.5 230.12,-2051.5 230.12,-2051.5 447.88,-2051.5 447.88,-2051.5 453.88,-2051.5 459.88,-2057.5 459.88,-2063.5 459.88,-2063.5 459.88,-2075.5 459.88,-2075.5 459.88,-2081.5 453.88,-2087.5 447.88,-2087.5"/>
<text text-anchor="middle" x="339" y="-2064.45" font-family="Times,serif" font-size="14.00">8: SendStmt(Ident(ch) &lt;&#45; BasicLit(int,1))</text>
</g>
<!-- n10&#45;&gt;n11 -->
<g id="edge33" class="edge">
<title>n10&#45;&gt;n11</title>
<path fill="none" stroke="black" d="M339,-2139.91C339,-2128.26 339,-2112.55 339,-2099.02"/>
<polygon fill="black" stroke="black" points="342.5,-2099.36 339,-2089.36 335.5,-2099.36 342.5,-2099.36"/>
<text text-anchor="middle" x="375.38" y="-2108.7" font-family="Times,serif" font-size="14.00">main.go:5:11</text>
</g>
<!-- n12 -->
<g id="node35" class="node">
<title>n12</title>
<path fill="#ebfaff" stroke="black" d="M366.88,-1999C366.88,-1999 311.12,-1999 311.12,-1999 305.12,-1999 299.12,-1993 299.12,-1987 299.12,-1987 299.12,-1975 299.12,-1975 299.12,-1969 305.12,-1963 311.12,-1963 311.12,-1963 366.88,-1963 366.88,-1963 372.88,-1963 378.88,-1969 378.88,-1975 378.88,-1975 378.88,-1987 378.88,-1987 378.88,-1993 372.88,-1999 366.88,-1999"/>
<text text-anchor="middle" x="339" y="-1975.95" font-family="Times,serif" font-size="14.00">9: Ident(ch)</text>
</g>
<!-- n11&#45;&gt;n12 -->
<g id="edge34" class="edge">
<title>n11&#45;&gt;n12</title>
<path fill="none" stroke="black" d="M339,-2051.41C339,-2039.76 339,-2024.05 339,-2010.52"/>
<polygon fill="black" stroke="black" points="342.5,-2010.86 339,-2000.86 335.5,-2010.86 342.5,-2010.86"/>
<text text-anchor="middle" x="372" y="-2020.2" font-family="Times,serif" font-size="14.00">main.go:5:8</text>
</g>
<!-- n12&#45;&gt;n13 -->
<g id="edge35" class="edge">
<title>n12&#45;&gt;n13</title>
<path fill="none" stroke="black" d="M339,-1962.91C339,-1951.26 339,-1935.55 339,-1922.02"/>
<polygon fill="black" stroke="black" points="342.5,-1922.36 339,-1912.36 335.5,-1922.36 342.5,-1922.36"/>
<text text-anchor="middle" x="372" y="-1931.7" font-family="Times,serif" font-size="14.00">main.go:6:5</text>
</g>
<!-- n2 -->
<g id="node36" class="node">
<title>n2</title>
<path fill="#ebfaff" stroke="black" d="M658.12,-2707C658.12,-2707 555.88,-2707 555.88,-2707 549.88,-2707 543.88,-2701 543.88,-2695 543.88,-2695 543.88,-2683 543.88,-2683 543.88,-2677 549.88,-2671 555.88,-2671 555.88,-2671 658.12,-2671 658.12,-2671 664.12,-2671 670.12,-2677 670.12,-2683 670.12,-2683 670.12,-2695 670.12,-2695 670.12,-2701 664.12,-2707 658.12,-2707"/>
<text text-anchor="middle" x="607" y="-2683.95" font-family="Times,serif" font-size="14.00"> 1: ~exec pop frame</text>
</g>
</g>
</svg>
