<?xml version="1.0" encoding="UTF-8" standalone="no"?>
<!DOCTYPE svg PUBLIC "-//W3C//DTD SVG 1.1//EN"
 "http://www.w3.org/Graphics/SVG/1.1/DTD/svg11.dtd">
<!-- Generated by graphviz version 12.2.1 (20241206.2353)
 -->
<!-- Pages: 1 -->
<svg width="786pt" height="897pt"
 viewBox="0.00 0.00 786.00 897.00" xmlns="http://www.w3.org/2000/svg" xmlns:xlink="http://www.w3.org/1999/xlink">
<g id="graph0" class="graph" transform="scale(1 1) rotate(0) translate(4 893)">
<polygon fill="white" stroke="none" points="-4,4 -4,-893 782,-893 782,4 -4,4"/>
<g id="clust1" class="cluster">
<title>cluster_s9</title>
<polygon fill="none" stroke="black" points="8,-8 8,-881 392,-881 392,-8 8,-8"/>
<text text-anchor="middle" x="200" y="-863.7" font-family="Times,serif" font-size="14.00">main</text>
</g>
<g id="clust2" class="cluster">
<title>cluster_s1</title>
<polygon fill="none" stroke="black" points="400,-804.5 400,-881 542,-881 542,-804.5 400,-804.5"/>
<text text-anchor="middle" x="471" y="-863.7" font-family="Times,serif" font-size="14.00">pkg.main</text>
</g>
<g id="clust3" class="cluster">
<title>cluster_s3</title>
<polygon fill="none" stroke="black" points="550,-450.5 550,-881 770,-881 770,-450.5 550,-450.5"/>
<text text-anchor="middle" x="660" y="-863.7" font-family="Times,serif" font-size="14.00">plus</text>
</g>
<!-- n10 -->
<g id="node1" class="node">
<title>n10</title>
<path fill="#ebfaff" stroke="black" d="M242.88,-848.5C242.88,-848.5 157.12,-848.5 157.12,-848.5 151.12,-848.5 145.12,-842.5 145.12,-836.5 145.12,-836.5 145.12,-824.5 145.12,-824.5 145.12,-818.5 151.12,-812.5 157.12,-812.5 157.12,-812.5 242.88,-812.5 242.88,-812.5 248.88,-812.5 254.88,-818.5 254.88,-824.5 254.88,-824.5 254.88,-836.5 254.88,-836.5 254.88,-842.5 248.88,-848.5 242.88,-848.5"/>
<text text-anchor="middle" x="200" y="-825.45" font-family="Times,serif" font-size="14.00">1: BasicLit(int,3)</text>
</g>
<!-- n11 -->
<g id="node3" class="node">
<title>n11</title>
<path fill="#ebfaff" stroke="black" d="M242.88,-760C242.88,-760 157.12,-760 157.12,-760 151.12,-760 145.12,-754 145.12,-748 145.12,-748 145.12,-736 145.12,-736 145.12,-730 151.12,-724 157.12,-724 157.12,-724 242.88,-724 242.88,-724 248.88,-724 254.88,-730 254.88,-736 254.88,-736 254.88,-748 254.88,-748 254.88,-754 248.88,-760 242.88,-760"/>
<text text-anchor="middle" x="200" y="-736.95" font-family="Times,serif" font-size="14.00">2: BasicLit(int,2)</text>
</g>
<!-- n10&#45;&gt;n11 -->
<g id="edge1" class="edge">
<title>n10&#45;&gt;n11</title>
<path fill="none" stroke="black" d="M200,-812.41C200,-800.76 200,-785.05 200,-771.52"/>
<polygon fill="black" stroke="black" points="203.5,-771.86 200,-761.86 196.5,-771.86 203.5,-771.86"/>
<text text-anchor="middle" x="236.38" y="-781.2" font-family="Times,serif" font-size="14.00">main.go:7:20</text>
</g>
<!-- n19 -->
<g id="node2" class="node">
<title>n19</title>
<path fill="#ebfaff" stroke="black" d="M260.12,-52C260.12,-52 139.88,-52 139.88,-52 133.88,-52 127.88,-46 127.88,-40 127.88,-40 127.88,-28 127.88,-28 127.88,-22 133.88,-16 139.88,-16 139.88,-16 260.12,-16 260.12,-16 266.12,-16 272.12,-22 272.12,-28 272.12,-28 272.12,-40 272.12,-40 272.12,-46 266.12,-52 260.12,-52"/>
<text text-anchor="middle" x="200" y="-28.95" font-family="Times,serif" font-size="14.00">10: ~exec defer+results</text>
</g>
<!-- n12 -->
<g id="node4" class="node">
<title>n12</title>
<path fill="#ebfaff" stroke="black" d="M232.75,-671.5C232.75,-671.5 167.25,-671.5 167.25,-671.5 161.25,-671.5 155.25,-665.5 155.25,-659.5 155.25,-659.5 155.25,-647.5 155.25,-647.5 155.25,-641.5 161.25,-635.5 167.25,-635.5 167.25,-635.5 232.75,-635.5 232.75,-635.5 238.75,-635.5 244.75,-641.5 244.75,-647.5 244.75,-647.5 244.75,-659.5 244.75,-659.5 244.75,-665.5 238.75,-671.5 232.75,-671.5"/>
<text text-anchor="middle" x="200" y="-648.45" font-family="Times,serif" font-size="14.00">3: Ident(plus)</text>
</g>
<!-- n11&#45;&gt;n12 -->
<g id="edge2" class="edge">
<title>n11&#45;&gt;n12</title>
<path fill="none" stroke="black" d="M200,-723.91C200,-712.26 200,-696.55 200,-683.02"/>
<polygon fill="black" stroke="black" points="203.5,-683.36 200,-673.36 196.5,-683.36 203.5,-683.36"/>
<text text-anchor="middle" x="236.38" y="-692.7" font-family="Times,serif" font-size="14.00">main.go:7:17</text>
</g>
<!-- n13 -->
<g id="node5" class="node">
<title>n13</title>
<path fill="#ebfaff" stroke="black" d="M284.12,-583C284.12,-583 115.88,-583 115.88,-583 109.88,-583 103.88,-577 103.88,-571 103.88,-571 103.88,-559 103.88,-559 103.88,-553 109.88,-547 115.88,-547 115.88,-547 284.12,-547 284.12,-547 290.12,-547 296.12,-553 296.12,-559 296.12,-559 296.12,-571 296.12,-571 296.12,-577 290.12,-583 284.12,-583"/>
<text text-anchor="middle" x="200" y="-559.95" font-family="Times,serif" font-size="14.00">4: CallExpr(Ident(plus), args=2)</text>
</g>
<!-- n12&#45;&gt;n13 -->
<g id="edge3" class="edge">
<title>n12&#45;&gt;n13</title>
<path fill="none" stroke="black" d="M200,-635.41C200,-623.76 200,-608.05 200,-594.52"/>
<polygon fill="black" stroke="black" points="203.5,-594.86 200,-584.86 196.5,-594.86 203.5,-594.86"/>
<text text-anchor="middle" x="236.38" y="-604.2" font-family="Times,serif" font-size="14.00">main.go:7:12</text>
</g>
<!-- n14 -->
<g id="node6" class="node">
<title>n14</title>
<path fill="#ebfaff" stroke="black" d="M372.25,-494.5C372.25,-494.5 27.75,-494.5 27.75,-494.5 21.75,-494.5 15.75,-488.5 15.75,-482.5 15.75,-482.5 15.75,-470.5 15.75,-470.5 15.75,-464.5 21.75,-458.5 27.75,-458.5 27.75,-458.5 372.25,-458.5 372.25,-458.5 378.25,-458.5 384.25,-464.5 384.25,-470.5 384.25,-470.5 384.25,-482.5 384.25,-482.5 384.25,-488.5 378.25,-494.5 372.25,-494.5"/>
<text text-anchor="middle" x="200" y="-471.45" font-family="Times,serif" font-size="14.00">5: AssignStmt([Ident(result)] := [CallExpr(Ident(plus), args=2)])</text>
</g>
<!-- n13&#45;&gt;n14 -->
<g id="edge4" class="edge">
<title>n13&#45;&gt;n14</title>
<path fill="none" stroke="black" d="M200,-546.91C200,-535.26 200,-519.55 200,-506.02"/>
<polygon fill="black" stroke="black" points="203.5,-506.36 200,-496.36 196.5,-506.36 203.5,-506.36"/>
<text text-anchor="middle" x="236.38" y="-515.7" font-family="Times,serif" font-size="14.00">main.go:7:16</text>
</g>
<!-- n15 -->
<g id="node7" class="node">
<title>n15</title>
<path fill="#ebfaff" stroke="black" d="M236.5,-406C236.5,-406 163.5,-406 163.5,-406 157.5,-406 151.5,-400 151.5,-394 151.5,-394 151.5,-382 151.5,-382 151.5,-376 157.5,-370 163.5,-370 163.5,-370 236.5,-370 236.5,-370 242.5,-370 248.5,-376 248.5,-382 248.5,-382 248.5,-394 248.5,-394 248.5,-400 242.5,-406 236.5,-406"/>
<text text-anchor="middle" x="200" y="-382.95" font-family="Times,serif" font-size="14.00">6: Ident(result)</text>
</g>
<!-- n14&#45;&gt;n15 -->
<g id="edge5" class="edge">
<title>n14&#45;&gt;n15</title>
<path fill="none" stroke="black" d="M200,-458.41C200,-446.76 200,-431.05 200,-417.52"/>
<polygon fill="black" stroke="black" points="203.5,-417.86 200,-407.86 196.5,-417.86 203.5,-417.86"/>
<text text-anchor="middle" x="233" y="-427.2" font-family="Times,serif" font-size="14.00">main.go:7:9</text>
</g>
<!-- n16 -->
<g id="node8" class="node">
<title>n16</title>
<path fill="#ebfaff" stroke="black" d="M234.25,-317.5C234.25,-317.5 165.75,-317.5 165.75,-317.5 159.75,-317.5 153.75,-311.5 153.75,-305.5 153.75,-305.5 153.75,-293.5 153.75,-293.5 153.75,-287.5 159.75,-281.5 165.75,-281.5 165.75,-281.5 234.25,-281.5 234.25,-281.5 240.25,-281.5 246.25,-287.5 246.25,-293.5 246.25,-293.5 246.25,-305.5 246.25,-305.5 246.25,-311.5 240.25,-317.5 234.25,-317.5"/>
<text text-anchor="middle" x="200" y="-294.45" font-family="Times,serif" font-size="14.00">7: Ident(print)</text>
</g>
<!-- n15&#45;&gt;n16 -->
<g id="edge6" class="edge">
<title>n15&#45;&gt;n16</title>
<path fill="none" stroke="black" d="M200,-369.91C200,-358.26 200,-342.55 200,-329.02"/>
<polygon fill="black" stroke="black" points="203.5,-329.36 200,-319.36 196.5,-329.36 203.5,-329.36"/>
<text text-anchor="middle" x="233" y="-338.7" font-family="Times,serif" font-size="14.00">main.go:8:8</text>
</g>
<!-- n17 -->
<g id="node9" class="node">
<title>n17</title>
<path fill="#ebfaff" stroke="black" d="M285.62,-229C285.62,-229 114.38,-229 114.38,-229 108.38,-229 102.38,-223 102.38,-217 102.38,-217 102.38,-205 102.38,-205 102.38,-199 108.38,-193 114.38,-193 114.38,-193 285.62,-193 285.62,-193 291.62,-193 297.62,-199 297.62,-205 297.62,-205 297.62,-217 297.62,-217 297.62,-223 291.62,-229 285.62,-229"/>
<text text-anchor="middle" x="200" y="-205.95" font-family="Times,serif" font-size="14.00">8: CallExpr(Ident(print), args=1)</text>
</g>
<!-- n16&#45;&gt;n17 -->
<g id="edge7" class="edge">
<title>n16&#45;&gt;n17</title>
<path fill="none" stroke="black" d="M200,-281.41C200,-269.76 200,-254.05 200,-240.52"/>
<polygon fill="black" stroke="black" points="203.5,-240.86 200,-230.86 196.5,-240.86 203.5,-240.86"/>
<text text-anchor="middle" x="233" y="-250.2" font-family="Times,serif" font-size="14.00">main.go:8:2</text>
</g>
<!-- n18 -->
<g id="node10" class="node">
<title>n18</title>
<path fill="#ebfaff" stroke="black" d="M254.88,-140.5C254.88,-140.5 145.12,-140.5 145.12,-140.5 139.12,-140.5 133.12,-134.5 133.12,-128.5 133.12,-128.5 133.12,-116.5 133.12,-116.5 133.12,-110.5 139.12,-104.5 145.12,-104.5 145.12,-104.5 254.88,-104.5 254.88,-104.5 260.88,-104.5 266.88,-110.5 266.88,-116.5 266.88,-116.5 266.88,-128.5 266.88,-128.5 266.88,-134.5 260.88,-140.5 254.88,-140.5"/>
<text text-anchor="middle" x="200" y="-117.45" font-family="Times,serif" font-size="14.00">9: ReturnStmt(len=0)</text>
</g>
<!-- n17&#45;&gt;n18 -->
<g id="edge8" class="edge">
<title>n17&#45;&gt;n18</title>
<path fill="none" stroke="black" d="M200,-192.91C200,-181.26 200,-165.55 200,-152.02"/>
<polygon fill="black" stroke="black" points="203.5,-152.36 200,-142.36 196.5,-152.36 203.5,-152.36"/>
<text text-anchor="middle" x="233" y="-161.7" font-family="Times,serif" font-size="14.00">main.go:8:7</text>
</g>
<!-- n18&#45;&gt;n19 -->
<g id="edge9" class="edge">
<title>n18&#45;&gt;n19</title>
<path fill="none" stroke="black" d="M200,-104.41C200,-92.76 200,-77.05 200,-63.52"/>
<polygon fill="black" stroke="black" points="203.5,-63.86 200,-53.86 196.5,-63.86 203.5,-63.86"/>
<text text-anchor="middle" x="236.38" y="-73.2" font-family="Times,serif" font-size="14.00">main.go:6:13</text>
</g>
<!-- n2 -->
<g id="node11" class="node">
<title>n2</title>
<path fill="#ebfaff" stroke="black" d="M522.12,-848.5C522.12,-848.5 419.88,-848.5 419.88,-848.5 413.88,-848.5 407.88,-842.5 407.88,-836.5 407.88,-836.5 407.88,-824.5 407.88,-824.5 407.88,-818.5 413.88,-812.5 419.88,-812.5 419.88,-812.5 522.12,-812.5 522.12,-812.5 528.12,-812.5 534.12,-818.5 534.12,-824.5 534.12,-824.5 534.12,-836.5 534.12,-836.5 534.12,-842.5 528.12,-848.5 522.12,-848.5"/>
<text text-anchor="middle" x="471" y="-825.45" font-family="Times,serif" font-size="14.00"> 1: ~exec pop frame</text>
</g>
<!-- n4 -->
<g id="node12" class="node">
<title>n4</title>
<path fill="#ebfaff" stroke="black" d="M684.5,-848.5C684.5,-848.5 635.5,-848.5 635.5,-848.5 629.5,-848.5 623.5,-842.5 623.5,-836.5 623.5,-836.5 623.5,-824.5 623.5,-824.5 623.5,-818.5 629.5,-812.5 635.5,-812.5 635.5,-812.5 684.5,-812.5 684.5,-812.5 690.5,-812.5 696.5,-818.5 696.5,-824.5 696.5,-824.5 696.5,-836.5 696.5,-836.5 696.5,-842.5 690.5,-848.5 684.5,-848.5"/>
<text text-anchor="middle" x="660" y="-825.45" font-family="Times,serif" font-size="14.00">1: Ident(a)</text>
</g>
<!-- n5 -->
<g id="node13" class="node">
<title>n5</title>
<path fill="#ebfaff" stroke="black" d="M684.88,-760C684.88,-760 635.12,-760 635.12,-760 629.12,-760 623.12,-754 623.12,-748 623.12,-748 623.12,-736 623.12,-736 623.12,-730 629.12,-724 635.12,-724 635.12,-724 684.88,-724 684.88,-724 690.88,-724 696.88,-730 696.88,-736 696.88,-736 696.88,-748 696.88,-748 696.88,-754 690.88,-760 684.88,-760"/>
<text text-anchor="middle" x="660" y="-736.95" font-family="Times,serif" font-size="14.00">2: Ident(b)</text>
</g>
<!-- n4&#45;&gt;n5 -->
<g id="edge10" class="edge">
<title>n4&#45;&gt;n5</title>
<path fill="none" stroke="black" d="M660,-812.41C660,-800.76 660,-785.05 660,-771.52"/>
<polygon fill="black" stroke="black" points="663.5,-771.86 660,-761.86 656.5,-771.86 663.5,-771.86"/>
<text text-anchor="middle" x="693" y="-781.2" font-family="Times,serif" font-size="14.00">main.go:4:9</text>
</g>
<!-- n6 -->
<g id="node14" class="node">
<title>n6</title>
<path fill="#ebfaff" stroke="black" d="M750.12,-671.5C750.12,-671.5 569.88,-671.5 569.88,-671.5 563.88,-671.5 557.88,-665.5 557.88,-659.5 557.88,-659.5 557.88,-647.5 557.88,-647.5 557.88,-641.5 563.88,-635.5 569.88,-635.5 569.88,-635.5 750.12,-635.5 750.12,-635.5 756.12,-635.5 762.12,-641.5 762.12,-647.5 762.12,-647.5 762.12,-659.5 762.12,-659.5 762.12,-665.5 756.12,-671.5 750.12,-671.5"/>
<text text-anchor="middle" x="660" y="-648.45" font-family="Times,serif" font-size="14.00">3: BinaryExpr(Ident(a) + Ident(b))</text>
</g>
<!-- n5&#45;&gt;n6 -->
<g id="edge11" class="edge">
<title>n5&#45;&gt;n6</title>
<path fill="none" stroke="black" d="M660,-723.91C660,-712.26 660,-696.55 660,-683.02"/>
<polygon fill="black" stroke="black" points="663.5,-683.36 660,-673.36 656.5,-683.36 663.5,-683.36"/>
<text text-anchor="middle" x="696.38" y="-692.7" font-family="Times,serif" font-size="14.00">main.go:4:13</text>
</g>
<!-- n7 -->
<g id="node15" class="node">
<title>n7</title>
<path fill="#ebfaff" stroke="black" d="M714.88,-583C714.88,-583 605.12,-583 605.12,-583 599.12,-583 593.12,-577 593.12,-571 593.12,-571 593.12,-559 593.12,-559 593.12,-553 599.12,-547 605.12,-547 605.12,-547 714.88,-547 714.88,-547 720.88,-547 726.88,-553 726.88,-559 726.88,-559 726.88,-571 726.88,-571 726.88,-577 720.88,-583 714.88,-583"/>
<text text-anchor="middle" x="660" y="-559.95" font-family="Times,serif" font-size="14.00">4: ReturnStmt(len=1)</text>
</g>
<!-- n6&#45;&gt;n7 -->
<g id="edge12" class="edge">
<title>n6&#45;&gt;n7</title>
<path fill="none" stroke="black" d="M660,-635.41C660,-623.76 660,-608.05 660,-594.52"/>
<polygon fill="black" stroke="black" points="663.5,-594.86 660,-584.86 656.5,-594.86 663.5,-594.86"/>
<text text-anchor="middle" x="696.38" y="-604.2" font-family="Times,serif" font-size="14.00">main.go:4:11</text>
</g>
<!-- n8 -->
<g id="node16" class="node">
<title>n8</title>
<path fill="#ebfaff" stroke="black" d="M718.62,-494.5C718.62,-494.5 601.38,-494.5 601.38,-494.5 595.38,-494.5 589.38,-488.5 589.38,-482.5 589.38,-482.5 589.38,-470.5 589.38,-470.5 589.38,-464.5 595.38,-458.5 601.38,-458.5 601.38,-458.5 718.62,-458.5 718.62,-458.5 724.62,-458.5 730.62,-464.5 730.62,-470.5 730.62,-470.5 730.62,-482.5 730.62,-482.5 730.62,-488.5 724.62,-494.5 718.62,-494.5"/>
<text text-anchor="middle" x="660" y="-471.45" font-family="Times,serif" font-size="14.00"> 5: ~exec defer+results</text>
</g>
<!-- n7&#45;&gt;n8 -->
<g id="edge13" class="edge">
<title>n7&#45;&gt;n8</title>
<path fill="none" stroke="black" d="M660,-546.91C660,-535.26 660,-519.55 660,-506.02"/>
<polygon fill="black" stroke="black" points="663.5,-506.36 660,-496.36 656.5,-506.36 663.5,-506.36"/>
<text text-anchor="middle" x="693" y="-515.7" font-family="Times,serif" font-size="14.00">main.go:4:2</text>
</g>
</g>
</svg>
