<?xml version="1.0" encoding="UTF-8" standalone="no"?>
<!DOCTYPE svg PUBLIC "-//W3C//DTD SVG 1.1//EN"
 "http://www.w3.org/Graphics/SVG/1.1/DTD/svg11.dtd">
<!-- Generated by graphviz version 12.2.1 (20241206.2353)
 -->
<!-- Pages: 1 -->
<svg width="794pt" height="2225pt"
 viewBox="0.00 0.00 794.00 2224.50" xmlns="http://www.w3.org/2000/svg" xmlns:xlink="http://www.w3.org/1999/xlink">
<g id="graph0" class="graph" transform="scale(1 1) rotate(0) translate(4 2220.5)">
<polygon fill="white" stroke="none" points="-4,4 -4,-2220.5 790,-2220.5 790,4 -4,4"/>
<g id="clust1" class="cluster">
<title>cluster_s3</title>
<polygon fill="none" stroke="black" points="8,-8 8,-2208.5 628,-2208.5 628,-8 8,-8"/>
<text text-anchor="middle" x="318" y="-2191.2" font-family="Times,serif" font-size="14.00">main</text>
</g>
<g id="clust2" class="cluster">
<title>cluster_s1</title>
<polygon fill="none" stroke="black" points="636,-2132 636,-2208.5 778,-2208.5 778,-2132 636,-2132"/>
<text text-anchor="middle" x="707" y="-2191.2" font-family="Times,serif" font-size="14.00">pkg.main</text>
</g>
<!-- n4 -->
<g id="node1" class="node">
<title>n4</title>
<path fill="#ebfaff" stroke="black" d="M380,-2176C380,-2176 274,-2176 274,-2176 268,-2176 262,-2170 262,-2164 262,-2164 262,-2152 262,-2152 262,-2146 268,-2140 274,-2140 274,-2140 380,-2140 380,-2140 386,-2140 392,-2146 392,-2152 392,-2152 392,-2164 392,-2164 392,-2170 386,-2176 380,-2176"/>
<text text-anchor="middle" x="327" y="-2152.95" font-family="Times,serif" font-size="14.00">1: BasicLit(string,gi)</text>
</g>
<!-- n5 -->
<g id="node12" class="node">
<title>n5</title>
<path fill="#ebfaff" stroke="black" d="M392.38,-2087.5C392.38,-2087.5 261.62,-2087.5 261.62,-2087.5 255.62,-2087.5 249.62,-2081.5 249.62,-2075.5 249.62,-2075.5 249.62,-2063.5 249.62,-2063.5 249.62,-2057.5 255.62,-2051.5 261.62,-2051.5 261.62,-2051.5 392.38,-2051.5 392.38,-2051.5 398.38,-2051.5 404.38,-2057.5 404.38,-2063.5 404.38,-2063.5 404.38,-2075.5 404.38,-2075.5 404.38,-2081.5 398.38,-2087.5 392.38,-2087.5"/>
<text text-anchor="middle" x="327" y="-2064.45" font-family="Times,serif" font-size="14.00"> 2: ~range&#45;iterator&#45;switch</text>
</g>
<!-- n4&#45;&gt;n5 -->
<g id="edge1" class="edge">
<title>n4&#45;&gt;n5</title>
<path fill="none" stroke="black" d="M327,-2139.91C327,-2128.26 327,-2112.55 327,-2099.02"/>
<polygon fill="black" stroke="black" points="330.5,-2099.36 327,-2089.36 323.5,-2099.36 330.5,-2099.36"/>
<text text-anchor="middle" x="363.38" y="-2108.7" font-family="Times,serif" font-size="14.00">main.go:4:20</text>
</g>
<!-- n13 -->
<g id="node2" class="node">
<title>n13</title>
<path fill="#ebfaff" stroke="black" d="M608.38,-1379.5C608.38,-1379.5 45.62,-1379.5 45.62,-1379.5 39.63,-1379.5 33.62,-1373.5 33.62,-1367.5 33.62,-1367.5 33.62,-1355.5 33.62,-1355.5 33.62,-1349.5 39.62,-1343.5 45.62,-1343.5 45.62,-1343.5 608.38,-1343.5 608.38,-1343.5 614.38,-1343.5 620.38,-1349.5 620.38,-1355.5 620.38,-1355.5 620.38,-1367.5 620.38,-1367.5 620.38,-1373.5 614.38,-1379.5 608.38,-1379.5"/>
<text text-anchor="middle" x="327" y="-1356.45" font-family="Times,serif" font-size="14.00">10: AssignStmt([Ident(_) Ident(s)] := [Ident(_index_2) IndexExpr(BasicLit(string,gi), Ident(_index_2))])</text>
</g>
<!-- n14 -->
<g id="node3" class="node">
<title>n14</title>
<path fill="#ebfaff" stroke="black" d="M382,-1291C382,-1291 282,-1291 282,-1291 276,-1291 270,-1285 270,-1279 270,-1279 270,-1267 270,-1267 270,-1261 276,-1255 282,-1255 282,-1255 382,-1255 382,-1255 388,-1255 394,-1261 394,-1267 394,-1267 394,-1279 394,-1279 394,-1285 388,-1291 382,-1291"/>
<text text-anchor="middle" x="332" y="-1267.95" font-family="Times,serif" font-size="14.00">11: Ident(_index_2)</text>
</g>
<!-- n13&#45;&gt;n14 -->
<g id="edge2" class="edge">
<title>n13&#45;&gt;n14</title>
<path fill="none" stroke="black" d="M327.99,-1343.41C328.66,-1331.76 329.57,-1316.05 330.35,-1302.52"/>
<polygon fill="black" stroke="black" points="333.83,-1303.05 330.91,-1292.86 326.84,-1302.64 333.83,-1303.05"/>
<text text-anchor="middle" x="362.95" y="-1312.2" font-family="Times,serif" font-size="14.00">main.go:4:2</text>
</g>
<!-- n15 -->
<g id="node4" class="node">
<title>n15</title>
<path fill="#ebfaff" stroke="black" d="M388.38,-1202.5C388.38,-1202.5 275.62,-1202.5 275.62,-1202.5 269.62,-1202.5 263.62,-1196.5 263.62,-1190.5 263.62,-1190.5 263.62,-1178.5 263.62,-1178.5 263.62,-1172.5 269.62,-1166.5 275.62,-1166.5 275.62,-1166.5 388.38,-1166.5 388.38,-1166.5 394.38,-1166.5 400.38,-1172.5 400.38,-1178.5 400.38,-1178.5 400.38,-1190.5 400.38,-1190.5 400.38,-1196.5 394.38,-1202.5 388.38,-1202.5"/>
<text text-anchor="middle" x="332" y="-1179.45" font-family="Times,serif" font-size="14.00">12: BasicLit(string,gi)</text>
</g>
<!-- n14&#45;&gt;n15 -->
<g id="edge3" class="edge">
<title>n14&#45;&gt;n15</title>
<path fill="none" stroke="black" d="M332,-1254.91C332,-1243.26 332,-1227.55 332,-1214.02"/>
<polygon fill="black" stroke="black" points="335.5,-1214.36 332,-1204.36 328.5,-1214.36 335.5,-1214.36"/>
<text text-anchor="middle" x="383.38" y="-1223.7" font-family="Times,serif" font-size="14.00">&lt;no position info&gt;</text>
</g>
<!-- n16 -->
<g id="node5" class="node">
<title>n16</title>
<path fill="#ebfaff" stroke="black" d="M433.75,-1114C433.75,-1114 230.25,-1114 230.25,-1114 224.25,-1114 218.25,-1108 218.25,-1102 218.25,-1102 218.25,-1090 218.25,-1090 218.25,-1084 224.25,-1078 230.25,-1078 230.25,-1078 433.75,-1078 433.75,-1078 439.75,-1078 445.75,-1084 445.75,-1090 445.75,-1090 445.75,-1102 445.75,-1102 445.75,-1108 439.75,-1114 433.75,-1114"/>
<text text-anchor="middle" x="332" y="-1090.95" font-family="Times,serif" font-size="14.00">13: reflectLenExpr(BasicLit(string,gi))</text>
</g>
<!-- n15&#45;&gt;n16 -->
<g id="edge4" class="edge">
<title>n15&#45;&gt;n16</title>
<path fill="none" stroke="black" d="M332,-1166.41C332,-1154.76 332,-1139.05 332,-1125.52"/>
<polygon fill="black" stroke="black" points="335.5,-1125.86 332,-1115.86 328.5,-1125.86 335.5,-1125.86"/>
<text text-anchor="middle" x="368.38" y="-1135.2" font-family="Times,serif" font-size="14.00">main.go:4:20</text>
</g>
<!-- n17 -->
<g id="node6" class="node">
<title>n17</title>
<path fill="#ebfaff" stroke="black" d="M521.12,-1025.5C521.12,-1025.5 142.88,-1025.5 142.88,-1025.5 136.88,-1025.5 130.88,-1019.5 130.88,-1013.5 130.88,-1013.5 130.88,-1001.5 130.88,-1001.5 130.88,-995.5 136.88,-989.5 142.88,-989.5 142.88,-989.5 521.12,-989.5 521.12,-989.5 527.12,-989.5 533.12,-995.5 533.12,-1001.5 533.12,-1001.5 533.12,-1013.5 533.12,-1013.5 533.12,-1019.5 527.12,-1025.5 521.12,-1025.5"/>
<text text-anchor="middle" x="332" y="-1002.45" font-family="Times,serif" font-size="14.00">14: BinaryExpr(Ident(_index_2) &lt; reflectLenExpr(BasicLit(string,gi)))</text>
</g>
<!-- n16&#45;&gt;n17 -->
<g id="edge5" class="edge">
<title>n16&#45;&gt;n17</title>
<path fill="none" stroke="black" d="M332,-1077.91C332,-1066.26 332,-1050.55 332,-1037.02"/>
<polygon fill="black" stroke="black" points="335.5,-1037.36 332,-1027.36 328.5,-1037.36 335.5,-1037.36"/>
<text text-anchor="middle" x="368.38" y="-1046.7" font-family="Times,serif" font-size="14.00">main.go:4:20</text>
</g>
<!-- n18 -->
<g id="node7" class="node">
<title>n18</title>
<path fill="#ebfaff" stroke="black" d="M379.75,-937C379.75,-937 284.25,-937 284.25,-937 278.25,-937 272.25,-931 272.25,-925 272.25,-925 272.25,-913 272.25,-913 272.25,-907 278.25,-901 284.25,-901 284.25,-901 379.75,-901 379.75,-901 385.75,-901 391.75,-907 391.75,-913 391.75,-913 391.75,-925 391.75,-925 391.75,-931 385.75,-937 379.75,-937"/>
<text text-anchor="middle" x="332" y="-913.95" font-family="Times,serif" font-size="14.00">15: ~if: 16 else: 26</text>
</g>
<!-- n17&#45;&gt;n18 -->
<g id="edge6" class="edge">
<title>n17&#45;&gt;n18</title>
<path fill="none" stroke="black" d="M332,-989.41C332,-977.76 332,-962.05 332,-948.52"/>
<polygon fill="black" stroke="black" points="335.5,-948.86 332,-938.86 328.5,-948.86 335.5,-948.86"/>
<text text-anchor="middle" x="365" y="-958.2" font-family="Times,serif" font-size="14.00">main.go:4:2</text>
</g>
<!-- n19 -->
<g id="node8" class="node">
<title>n19</title>
<path fill="#ebfaff" stroke="black" d="M338.38,-848.5C338.38,-848.5 225.62,-848.5 225.62,-848.5 219.62,-848.5 213.62,-842.5 213.62,-836.5 213.62,-836.5 213.62,-824.5 213.62,-824.5 213.62,-818.5 219.62,-812.5 225.62,-812.5 225.62,-812.5 338.38,-812.5 338.38,-812.5 344.38,-812.5 350.38,-818.5 350.38,-824.5 350.38,-824.5 350.38,-836.5 350.38,-836.5 350.38,-842.5 344.38,-848.5 338.38,-848.5"/>
<text text-anchor="middle" x="282" y="-825.45" font-family="Times,serif" font-size="14.00">16: BasicLit(string,gi)</text>
</g>
<!-- n18&#45;&gt;n19 -->
<g id="edge7" class="edge">
<title>n18&#45;&gt;n19</title>
<path fill="none" stroke="black" d="M322.12,-900.91C315.18,-888.9 305.75,-872.59 297.78,-858.8"/>
<polygon fill="black" stroke="black" points="300.82,-857.07 292.79,-850.16 294.76,-860.57 300.82,-857.07"/>
<text text-anchor="middle" x="321.98" y="-869.7" font-family="Times,serif" font-size="14.00">true</text>
</g>
<!-- n29 -->
<g id="node19" class="node">
<title>n29</title>
<path fill="#ebfaff" stroke="black" d="M445,-848.5C445,-848.5 381,-848.5 381,-848.5 375,-848.5 369,-842.5 369,-836.5 369,-836.5 369,-824.5 369,-824.5 369,-818.5 375,-812.5 381,-812.5 381,-812.5 445,-812.5 445,-812.5 451,-812.5 457,-818.5 457,-824.5 457,-824.5 457,-836.5 457,-836.5 457,-842.5 451,-848.5 445,-848.5"/>
<text text-anchor="middle" x="413" y="-825.45" font-family="Times,serif" font-size="14.00">26: ~pop env</text>
</g>
<!-- n18&#45;&gt;n29 -->
<g id="edge8" class="edge">
<title>n18&#45;&gt;n29</title>
<path fill="none" stroke="black" d="M348,-900.91C359.69,-888.43 375.73,-871.3 388.95,-857.18"/>
<polygon fill="black" stroke="black" points="391.44,-859.65 395.72,-849.95 386.33,-854.86 391.44,-859.65"/>
<text text-anchor="middle" x="392.51" y="-869.7" font-family="Times,serif" font-size="14.00">false</text>
</g>
<!-- n20 -->
<g id="node9" class="node">
<title>n20</title>
<path fill="#ebfaff" stroke="black" d="M309,-760C309,-760 209,-760 209,-760 203,-760 197,-754 197,-748 197,-748 197,-736 197,-736 197,-730 203,-724 209,-724 209,-724 309,-724 309,-724 315,-724 321,-730 321,-736 321,-736 321,-748 321,-748 321,-754 315,-760 309,-760"/>
<text text-anchor="middle" x="259" y="-736.95" font-family="Times,serif" font-size="14.00">17: Ident(_index_2)</text>
</g>
<!-- n19&#45;&gt;n20 -->
<g id="edge9" class="edge">
<title>n19&#45;&gt;n20</title>
<path fill="none" stroke="black" d="M277.46,-812.41C274.33,-800.64 270.1,-784.73 266.47,-771.11"/>
<polygon fill="black" stroke="black" points="269.95,-770.58 264,-761.81 263.19,-772.38 269.95,-770.58"/>
<text text-anchor="middle" x="308.94" y="-781.2" font-family="Times,serif" font-size="14.00">main.go:4:20</text>
</g>
<!-- n21 -->
<g id="node10" class="node">
<title>n21</title>
<path fill="#ebfaff" stroke="black" d="M347.62,-671.5C347.62,-671.5 74.37,-671.5 74.37,-671.5 68.38,-671.5 62.38,-665.5 62.38,-659.5 62.38,-659.5 62.38,-647.5 62.38,-647.5 62.38,-641.5 68.38,-635.5 74.38,-635.5 74.38,-635.5 347.62,-635.5 347.62,-635.5 353.62,-635.5 359.62,-641.5 359.62,-647.5 359.62,-647.5 359.62,-659.5 359.62,-659.5 359.62,-665.5 353.62,-671.5 347.62,-671.5"/>
<text text-anchor="middle" x="211" y="-648.45" font-family="Times,serif" font-size="14.00">18: IndexExpr(BasicLit(string,gi), Ident(_index_2))</text>
</g>
<!-- n20&#45;&gt;n21 -->
<g id="edge10" class="edge">
<title>n20&#45;&gt;n21</title>
<path fill="none" stroke="black" d="M249.52,-723.91C242.85,-711.9 233.8,-695.59 226.15,-681.8"/>
<polygon fill="black" stroke="black" points="229.27,-680.22 221.36,-673.17 223.15,-683.62 229.27,-680.22"/>
<text text-anchor="middle" x="290.67" y="-692.7" font-family="Times,serif" font-size="14.00">&lt;no position info&gt;</text>
</g>
<!-- n22 -->
<g id="node11" class="node">
<title>n22</title>
<path fill="#ebfaff" stroke="black" d="M325,-583C325,-583 225,-583 225,-583 219,-583 213,-577 213,-571 213,-571 213,-559 213,-559 213,-553 219,-547 225,-547 225,-547 325,-547 325,-547 331,-547 337,-553 337,-559 337,-559 337,-571 337,-571 337,-577 331,-583 325,-583"/>
<text text-anchor="middle" x="275" y="-559.95" font-family="Times,serif" font-size="14.00">19: Ident(_index_2)</text>
</g>
<!-- n21&#45;&gt;n22 -->
<g id="edge11" class="edge">
<title>n21&#45;&gt;n22</title>
<path fill="none" stroke="black" d="M223.64,-635.41C232.7,-623.17 245.07,-606.45 255.4,-592.49"/>
<polygon fill="black" stroke="black" points="258.13,-594.69 261.26,-584.57 252.5,-590.52 258.13,-594.69"/>
<text text-anchor="middle" x="281.73" y="-604.2" font-family="Times,serif" font-size="14.00">main.go:4:2</text>
</g>
<!-- n23 -->
<g id="node13" class="node">
<title>n23</title>
<path fill="#ebfaff" stroke="black" d="M587.5,-494.5C587.5,-494.5 28.5,-494.5 28.5,-494.5 22.5,-494.5 16.5,-488.5 16.5,-482.5 16.5,-482.5 16.5,-470.5 16.5,-470.5 16.5,-464.5 22.5,-458.5 28.5,-458.5 28.5,-458.5 587.5,-458.5 587.5,-458.5 593.5,-458.5 599.5,-464.5 599.5,-470.5 599.5,-470.5 599.5,-482.5 599.5,-482.5 599.5,-488.5 593.5,-494.5 587.5,-494.5"/>
<text text-anchor="middle" x="308" y="-471.45" font-family="Times,serif" font-size="14.00">20: AssignStmt([Ident(_) Ident(s)] = [Ident(_index_2) IndexExpr(BasicLit(string,gi), Ident(_index_2))])</text>
</g>
<!-- n22&#45;&gt;n23 -->
<g id="edge12" class="edge">
<title>n22&#45;&gt;n23</title>
<path fill="none" stroke="black" d="M281.52,-546.91C286.06,-535.02 292.2,-518.91 297.43,-505.2"/>
<polygon fill="black" stroke="black" points="300.55,-506.86 300.84,-496.26 294.01,-504.36 300.55,-506.86"/>
<text text-anchor="middle" x="345.83" y="-515.7" font-family="Times,serif" font-size="14.00">&lt;no position info&gt;</text>
</g>
<!-- n6 -->
<g id="node23" class="node">
<title>n6</title>
<path fill="#ebfaff" stroke="black" d="M358.25,-1999C358.25,-1999 295.75,-1999 295.75,-1999 289.75,-1999 283.75,-1993 283.75,-1987 283.75,-1987 283.75,-1975 283.75,-1975 283.75,-1969 289.75,-1963 295.75,-1963 295.75,-1963 358.25,-1963 358.25,-1963 364.25,-1963 370.25,-1969 370.25,-1975 370.25,-1975 370.25,-1987 370.25,-1987 370.25,-1993 364.25,-1999 358.25,-1999"/>
<text text-anchor="middle" x="327" y="-1975.95" font-family="Times,serif" font-size="14.00">3: ~push env</text>
</g>
<!-- n5&#45;&gt;n6 -->
<g id="edge13" class="edge">
<title>n5&#45;&gt;n6</title>
<path fill="none" stroke="black" d="M327,-2051.41C327,-2039.76 327,-2024.05 327,-2010.52"/>
<polygon fill="black" stroke="black" points="330.5,-2010.86 327,-2000.86 323.5,-2010.86 330.5,-2010.86"/>
<text text-anchor="middle" x="362.25" y="-2020.2" font-family="Times,serif" font-size="14.00">sliceOrArray</text>
</g>
<!-- n24 -->
<g id="node14" class="node">
<title>n24</title>
<path fill="#ebfaff" stroke="black" d="M433.5,-406C433.5,-406 378.5,-406 378.5,-406 372.5,-406 366.5,-400 366.5,-394 366.5,-394 366.5,-382 366.5,-382 366.5,-376 372.5,-370 378.5,-370 378.5,-370 433.5,-370 433.5,-370 439.5,-370 445.5,-376 445.5,-382 445.5,-382 445.5,-394 445.5,-394 445.5,-400 439.5,-406 433.5,-406"/>
<text text-anchor="middle" x="406" y="-382.95" font-family="Times,serif" font-size="14.00">21: Ident(s)</text>
</g>
<!-- n23&#45;&gt;n24 -->
<g id="edge14" class="edge">
<title>n23&#45;&gt;n24</title>
<path fill="none" stroke="black" d="M327.36,-458.41C341.76,-445.7 361.64,-428.16 377.8,-413.89"/>
<polygon fill="black" stroke="black" points="380.03,-416.59 385.21,-407.35 375.39,-411.35 380.03,-416.59"/>
<text text-anchor="middle" x="398.78" y="-427.2" font-family="Times,serif" font-size="14.00">main.go:4:2</text>
</g>
<!-- n25 -->
<g id="node15" class="node">
<title>n25</title>
<path fill="#ebfaff" stroke="black" d="M470.62,-317.5C470.62,-317.5 395.38,-317.5 395.38,-317.5 389.38,-317.5 383.38,-311.5 383.38,-305.5 383.38,-305.5 383.38,-293.5 383.38,-293.5 383.38,-287.5 389.38,-281.5 395.38,-281.5 395.38,-281.5 470.62,-281.5 470.62,-281.5 476.62,-281.5 482.62,-287.5 482.62,-293.5 482.62,-293.5 482.62,-305.5 482.62,-305.5 482.62,-311.5 476.62,-317.5 470.62,-317.5"/>
<text text-anchor="middle" x="433" y="-294.45" font-family="Times,serif" font-size="14.00">22: Ident(print)</text>
</g>
<!-- n24&#45;&gt;n25 -->
<g id="edge15" class="edge">
<title>n24&#45;&gt;n25</title>
<path fill="none" stroke="black" d="M411.33,-369.91C415.01,-358.14 419.97,-342.23 424.23,-328.61"/>
<polygon fill="black" stroke="black" points="427.49,-329.88 427.13,-319.29 420.81,-327.8 427.49,-329.88"/>
<text text-anchor="middle" x="454.92" y="-338.7" font-family="Times,serif" font-size="14.00">main.go:5:9</text>
</g>
<!-- n26 -->
<g id="node16" class="node">
<title>n26</title>
<path fill="#ebfaff" stroke="black" d="M576,-229C576,-229 398,-229 398,-229 392,-229 386,-223 386,-217 386,-217 386,-205 386,-205 386,-199 392,-193 398,-193 398,-193 576,-193 576,-193 582,-193 588,-199 588,-205 588,-205 588,-217 588,-217 588,-223 582,-229 576,-229"/>
<text text-anchor="middle" x="487" y="-205.95" font-family="Times,serif" font-size="14.00">23: CallExpr(Ident(print), args=1)</text>
</g>
<!-- n25&#45;&gt;n26 -->
<g id="edge16" class="edge">
<title>n25&#45;&gt;n26</title>
<path fill="none" stroke="black" d="M443.67,-281.41C451.24,-269.29 461.55,-252.77 470.21,-238.89"/>
<polygon fill="black" stroke="black" points="473.04,-240.97 475.37,-230.63 467.1,-237.26 473.04,-240.97"/>
<text text-anchor="middle" x="497.84" y="-250.2" font-family="Times,serif" font-size="14.00">main.go:5:3</text>
</g>
<!-- n27 -->
<g id="node17" class="node">
<title>n27</title>
<path fill="#ebfaff" stroke="black" d="M543,-140.5C543,-140.5 443,-140.5 443,-140.5 437,-140.5 431,-134.5 431,-128.5 431,-128.5 431,-116.5 431,-116.5 431,-110.5 437,-104.5 443,-104.5 443,-104.5 543,-104.5 543,-104.5 549,-104.5 555,-110.5 555,-116.5 555,-116.5 555,-128.5 555,-128.5 555,-134.5 549,-140.5 543,-140.5"/>
<text text-anchor="middle" x="493" y="-117.45" font-family="Times,serif" font-size="14.00">24: Ident(_index_2)</text>
</g>
<!-- n26&#45;&gt;n27 -->
<g id="edge17" class="edge">
<title>n26&#45;&gt;n27</title>
<path fill="none" stroke="black" d="M488.19,-192.91C488.99,-181.26 490.08,-165.55 491.02,-152.02"/>
<polygon fill="black" stroke="black" points="494.49,-152.58 491.69,-142.36 487.51,-152.09 494.49,-152.58"/>
<text text-anchor="middle" x="523.54" y="-161.7" font-family="Times,serif" font-size="14.00">main.go:5:8</text>
</g>
<!-- n28 -->
<g id="node18" class="node">
<title>n28</title>
<path fill="#ebfaff" stroke="black" d="M591.12,-52C591.12,-52 416.88,-52 416.88,-52 410.88,-52 404.88,-46 404.88,-40 404.88,-40 404.88,-28 404.88,-28 404.88,-22 410.88,-16 416.88,-16 416.88,-16 591.12,-16 591.12,-16 597.12,-16 603.12,-22 603.12,-28 603.12,-28 603.12,-40 603.12,-40 603.12,-46 597.12,-52 591.12,-52"/>
<text text-anchor="middle" x="504" y="-28.95" font-family="Times,serif" font-size="14.00">25: IncDecStmt(Ident(_index_2))</text>
</g>
<!-- n27&#45;&gt;n28 -->
<g id="edge18" class="edge">
<title>n27&#45;&gt;n28</title>
<path fill="none" stroke="black" d="M495.17,-104.41C496.66,-92.76 498.65,-77.05 500.37,-63.52"/>
<polygon fill="black" stroke="black" points="503.81,-64.21 501.6,-53.85 496.87,-63.33 503.81,-64.21"/>
<text text-anchor="middle" x="550.86" y="-73.2" font-family="Times,serif" font-size="14.00">&lt;no position info&gt;</text>
</g>
<!-- n28&#45;&gt;n14 -->
<g id="edge19" class="edge">
<title>n28&#45;&gt;n14</title>
<path fill="none" stroke="black" d="M582.27,-52.48C591.13,-57.03 599.35,-62.77 606,-70 621.98,-87.37 619,-97.89 619,-121.5 619,-433.25 619,-433.25 619,-433.25 619,-553.87 554,-576.13 554,-696.75 554,-1185.5 554,-1185.5 554,-1185.5 554,-1218.05 470.08,-1243.27 405.44,-1257.87"/>
<polygon fill="black" stroke="black" points="404.92,-1254.4 395.91,-1259.98 406.43,-1261.24 404.92,-1254.4"/>
<text text-anchor="middle" x="593.29" y="-648.45" font-family="Times,serif" font-size="14.00">main.go:4:2</text>
</g>
<!-- n30 -->
<g id="node20" class="node">
<title>n30</title>
<path fill="#ebfaff" stroke="black" d="M472.62,-760C472.62,-760 391.38,-760 391.38,-760 385.38,-760 379.38,-754 379.38,-748 379.38,-748 379.38,-736 379.38,-736 379.38,-730 385.38,-724 391.38,-724 391.38,-724 472.62,-724 472.62,-724 478.62,-724 484.62,-730 484.62,-736 484.62,-736 484.62,-748 484.62,-748 484.62,-754 478.62,-760 472.62,-760"/>
<text text-anchor="middle" x="432" y="-736.95" font-family="Times,serif" font-size="14.00">27: ~range&#45;done</text>
</g>
<!-- n29&#45;&gt;n30 -->
<g id="edge20" class="edge">
<title>n29&#45;&gt;n30</title>
<path fill="none" stroke="black" d="M416.75,-812.41C419.31,-800.76 422.76,-785.05 425.74,-771.52"/>
<polygon fill="black" stroke="black" points="429.14,-772.35 427.86,-761.83 422.3,-770.84 429.14,-772.35"/>
<text text-anchor="middle" x="475.58" y="-781.2" font-family="Times,serif" font-size="14.00">&lt;no position info&gt;</text>
</g>
<!-- n31 -->
<g id="node21" class="node">
<title>n31</title>
<path fill="#ebfaff" stroke="black" d="M506.25,-671.5C506.25,-671.5 389.75,-671.5 389.75,-671.5 383.75,-671.5 377.75,-665.5 377.75,-659.5 377.75,-659.5 377.75,-647.5 377.75,-647.5 377.75,-641.5 383.75,-635.5 389.75,-635.5 389.75,-635.5 506.25,-635.5 506.25,-635.5 512.25,-635.5 518.25,-641.5 518.25,-647.5 518.25,-647.5 518.25,-659.5 518.25,-659.5 518.25,-665.5 512.25,-671.5 506.25,-671.5"/>
<text text-anchor="middle" x="448" y="-648.45" font-family="Times,serif" font-size="14.00">28: ReturnStmt(len=0)</text>
</g>
<!-- n30&#45;&gt;n31 -->
<g id="edge21" class="edge">
<title>n30&#45;&gt;n31</title>
<path fill="none" stroke="black" d="M435.16,-723.91C437.32,-712.26 440.22,-696.55 442.72,-683.02"/>
<polygon fill="black" stroke="black" points="446.14,-683.81 444.52,-673.34 439.25,-682.54 446.14,-683.81"/>
<text text-anchor="middle" x="474.43" y="-692.7" font-family="Times,serif" font-size="14.00">main.go:4:2</text>
</g>
<!-- n32 -->
<g id="node22" class="node">
<title>n32</title>
<path fill="#ebfaff" stroke="black" d="M508.12,-583C508.12,-583 387.88,-583 387.88,-583 381.88,-583 375.88,-577 375.88,-571 375.88,-571 375.88,-559 375.88,-559 375.88,-553 381.88,-547 387.88,-547 387.88,-547 508.12,-547 508.12,-547 514.12,-547 520.12,-553 520.12,-559 520.12,-559 520.12,-571 520.12,-571 520.12,-577 514.12,-583 508.12,-583"/>
<text text-anchor="middle" x="448" y="-559.95" font-family="Times,serif" font-size="14.00">29: ~exec defer+results</text>
</g>
<!-- n31&#45;&gt;n32 -->
<g id="edge22" class="edge">
<title>n31&#45;&gt;n32</title>
<path fill="none" stroke="black" d="M448,-635.41C448,-623.76 448,-608.05 448,-594.52"/>
<polygon fill="black" stroke="black" points="451.5,-594.86 448,-584.86 444.5,-594.86 451.5,-594.86"/>
<text text-anchor="middle" x="484.38" y="-604.2" font-family="Times,serif" font-size="14.00">main.go:3:13</text>
</g>
<!-- n7 -->
<g id="node24" class="node">
<title>n7</title>
<path fill="#ebfaff" stroke="black" d="M369.88,-1910.5C369.88,-1910.5 284.12,-1910.5 284.12,-1910.5 278.12,-1910.5 272.12,-1904.5 272.12,-1898.5 272.12,-1898.5 272.12,-1886.5 272.12,-1886.5 272.12,-1880.5 278.12,-1874.5 284.12,-1874.5 284.12,-1874.5 369.88,-1874.5 369.88,-1874.5 375.88,-1874.5 381.88,-1880.5 381.88,-1886.5 381.88,-1886.5 381.88,-1898.5 381.88,-1898.5 381.88,-1904.5 375.88,-1910.5 369.88,-1910.5"/>
<text text-anchor="middle" x="327" y="-1887.45" font-family="Times,serif" font-size="14.00">4: BasicLit(int,0)</text>
</g>
<!-- n6&#45;&gt;n7 -->
<g id="edge23" class="edge">
<title>n6&#45;&gt;n7</title>
<path fill="none" stroke="black" d="M327,-1962.91C327,-1951.26 327,-1935.55 327,-1922.02"/>
<polygon fill="black" stroke="black" points="330.5,-1922.36 327,-1912.36 323.5,-1922.36 330.5,-1922.36"/>
<text text-anchor="middle" x="378.38" y="-1931.7" font-family="Times,serif" font-size="14.00">&lt;no position info&gt;</text>
</g>
<!-- n8 -->
<g id="node25" class="node">
<title>n8</title>
<path fill="#ebfaff" stroke="black" d="M468.12,-1822C468.12,-1822 185.88,-1822 185.88,-1822 179.88,-1822 173.88,-1816 173.88,-1810 173.88,-1810 173.88,-1798 173.88,-1798 173.88,-1792 179.88,-1786 185.88,-1786 185.88,-1786 468.12,-1786 468.12,-1786 474.12,-1786 480.12,-1792 480.12,-1798 480.12,-1798 480.12,-1810 480.12,-1810 480.12,-1816 474.12,-1822 468.12,-1822"/>
<text text-anchor="middle" x="327" y="-1798.95" font-family="Times,serif" font-size="14.00">5: AssignStmt([Ident(_index_2)] := [BasicLit(int,0)])</text>
</g>
<!-- n7&#45;&gt;n8 -->
<g id="edge24" class="edge">
<title>n7&#45;&gt;n8</title>
<path fill="none" stroke="black" d="M327,-1874.41C327,-1862.76 327,-1847.05 327,-1833.52"/>
<polygon fill="black" stroke="black" points="330.5,-1833.86 327,-1823.86 323.5,-1833.86 330.5,-1833.86"/>
<text text-anchor="middle" x="360" y="-1843.2" font-family="Times,serif" font-size="14.00">main.go:4:2</text>
</g>
<!-- n9 -->
<g id="node26" class="node">
<title>n9</title>
<path fill="#ebfaff" stroke="black" d="M380,-1733.5C380,-1733.5 274,-1733.5 274,-1733.5 268,-1733.5 262,-1727.5 262,-1721.5 262,-1721.5 262,-1709.5 262,-1709.5 262,-1703.5 268,-1697.5 274,-1697.5 274,-1697.5 380,-1697.5 380,-1697.5 386,-1697.5 392,-1703.5 392,-1709.5 392,-1709.5 392,-1721.5 392,-1721.5 392,-1727.5 386,-1733.5 380,-1733.5"/>
<text text-anchor="middle" x="327" y="-1710.45" font-family="Times,serif" font-size="14.00">6: BasicLit(string,gi)</text>
</g>
<!-- n8&#45;&gt;n9 -->
<g id="edge25" class="edge">
<title>n8&#45;&gt;n9</title>
<path fill="none" stroke="black" d="M327,-1785.91C327,-1774.26 327,-1758.55 327,-1745.02"/>
<polygon fill="black" stroke="black" points="330.5,-1745.36 327,-1735.36 323.5,-1745.36 330.5,-1745.36"/>
<text text-anchor="middle" x="360" y="-1754.7" font-family="Times,serif" font-size="14.00">main.go:4:2</text>
</g>
<!-- n10 -->
<g id="node27" class="node">
<title>n10</title>
<path fill="#ebfaff" stroke="black" d="M373.62,-1645C373.62,-1645 280.38,-1645 280.38,-1645 274.38,-1645 268.38,-1639 268.38,-1633 268.38,-1633 268.38,-1621 268.38,-1621 268.38,-1615 274.38,-1609 280.38,-1609 280.38,-1609 373.62,-1609 373.62,-1609 379.62,-1609 385.62,-1615 385.62,-1621 385.62,-1621 385.62,-1633 385.62,-1633 385.62,-1639 379.62,-1645 373.62,-1645"/>
<text text-anchor="middle" x="327" y="-1621.95" font-family="Times,serif" font-size="14.00">7: Ident(_index_2)</text>
</g>
<!-- n9&#45;&gt;n10 -->
<g id="edge26" class="edge">
<title>n9&#45;&gt;n10</title>
<path fill="none" stroke="black" d="M327,-1697.41C327,-1685.76 327,-1670.05 327,-1656.52"/>
<polygon fill="black" stroke="black" points="330.5,-1656.86 327,-1646.86 323.5,-1656.86 330.5,-1656.86"/>
<text text-anchor="middle" x="363.38" y="-1666.2" font-family="Times,serif" font-size="14.00">main.go:4:20</text>
</g>
<!-- n11 -->
<g id="node28" class="node">
<title>n11</title>
<path fill="#ebfaff" stroke="black" d="M460.25,-1556.5C460.25,-1556.5 193.75,-1556.5 193.75,-1556.5 187.75,-1556.5 181.75,-1550.5 181.75,-1544.5 181.75,-1544.5 181.75,-1532.5 181.75,-1532.5 181.75,-1526.5 187.75,-1520.5 193.75,-1520.5 193.75,-1520.5 460.25,-1520.5 460.25,-1520.5 466.25,-1520.5 472.25,-1526.5 472.25,-1532.5 472.25,-1532.5 472.25,-1544.5 472.25,-1544.5 472.25,-1550.5 466.25,-1556.5 460.25,-1556.5"/>
<text text-anchor="middle" x="327" y="-1533.45" font-family="Times,serif" font-size="14.00">8: IndexExpr(BasicLit(string,gi), Ident(_index_2))</text>
</g>
<!-- n10&#45;&gt;n11 -->
<g id="edge27" class="edge">
<title>n10&#45;&gt;n11</title>
<path fill="none" stroke="black" d="M327,-1608.91C327,-1597.26 327,-1581.55 327,-1568.02"/>
<polygon fill="black" stroke="black" points="330.5,-1568.36 327,-1558.36 323.5,-1568.36 330.5,-1568.36"/>
<text text-anchor="middle" x="378.38" y="-1577.7" font-family="Times,serif" font-size="14.00">&lt;no position info&gt;</text>
</g>
<!-- n12 -->
<g id="node29" class="node">
<title>n12</title>
<path fill="#ebfaff" stroke="black" d="M373.62,-1468C373.62,-1468 280.38,-1468 280.38,-1468 274.38,-1468 268.38,-1462 268.38,-1456 268.38,-1456 268.38,-1444 268.38,-1444 268.38,-1438 274.38,-1432 280.38,-1432 280.38,-1432 373.62,-1432 373.62,-1432 379.62,-1432 385.62,-1438 385.62,-1444 385.62,-1444 385.62,-1456 385.62,-1456 385.62,-1462 379.62,-1468 373.62,-1468"/>
<text text-anchor="middle" x="327" y="-1444.95" font-family="Times,serif" font-size="14.00">9: Ident(_index_2)</text>
</g>
<!-- n11&#45;&gt;n12 -->
<g id="edge28" class="edge">
<title>n11&#45;&gt;n12</title>
<path fill="none" stroke="black" d="M327,-1520.41C327,-1508.76 327,-1493.05 327,-1479.52"/>
<polygon fill="black" stroke="black" points="330.5,-1479.86 327,-1469.86 323.5,-1479.86 330.5,-1479.86"/>
<text text-anchor="middle" x="360" y="-1489.2" font-family="Times,serif" font-size="14.00">main.go:4:2</text>
</g>
<!-- n12&#45;&gt;n13 -->
<g id="edge29" class="edge">
<title>n12&#45;&gt;n13</title>
<path fill="none" stroke="black" d="M327,-1431.91C327,-1420.26 327,-1404.55 327,-1391.02"/>
<polygon fill="black" stroke="black" points="330.5,-1391.36 327,-1381.36 323.5,-1391.36 330.5,-1391.36"/>
<text text-anchor="middle" x="378.38" y="-1400.7" font-family="Times,serif" font-size="14.00">&lt;no position info&gt;</text>
</g>
<!-- n2 -->
<g id="node30" class="node">
<title>n2</title>
<path fill="#ebfaff" stroke="black" d="M758.12,-2176C758.12,-2176 655.88,-2176 655.88,-2176 649.88,-2176 643.88,-2170 643.88,-2164 643.88,-2164 643.88,-2152 643.88,-2152 643.88,-2146 649.88,-2140 655.88,-2140 655.88,-2140 758.12,-2140 758.12,-2140 764.12,-2140 770.12,-2146 770.12,-2152 770.12,-2152 770.12,-2164 770.12,-2164 770.12,-2170 764.12,-2176 758.12,-2176"/>
<text text-anchor="middle" x="707" y="-2152.95" font-family="Times,serif" font-size="14.00"> 1: ~exec pop frame</text>
</g>
</g>
</svg>
